<?xml version="1.0" encoding="UTF-8" standalone="no"?>
<!-- Created with Inkscape (http://www.inkscape.org/) -->

<svg
   width="406.56018mm"
   height="270.68982mm"
   viewBox="0 0 406.56018 270.68982"
   version="1.1"
   id="svg5"
   xml:space="preserve"
   xmlns="http://www.w3.org/2000/svg"
   xmlns:svg="http://www.w3.org/2000/svg"><defs
     id="defs2" /><g
     id="layer1"
     transform="translate(-10.027944,-10.402393)"><g
       id="g72925"><ellipse
         style="fill:none;stroke:#000000;stroke-width:0.264583;stroke-opacity:1"
         id="path160"
         cx="56.261253"
         cy="143.19604"
         rx="8.5638027"
         ry="8.7460117" /><path
         style="fill:#ffffff;stroke:#000000;stroke-width:0.225629;stroke-opacity:1"
         d="M 56.262345,152.12556 55.89574,182.55183"
         id="path2522" /><path
         style="fill:none;stroke:#000000;stroke-width:0.264583;stroke-opacity:1"
         d="m 70.830933,153.0589 4.380011,-14.78247"
         id="path2778" /><path
         style="fill:none;stroke:#000000;stroke-width:0.264583;stroke-opacity:1"
         d="m 56.261252,160.68808 14.651532,-7.72273"
         id="path2591" /><path
         style="fill:none;stroke:#000000;stroke-width:0.264583;stroke-opacity:1"
         d="M 56.079041,160.68808 43.142232,182.3709"
         id="path2703" /><path
         style="fill:none;stroke:#000000;stroke-width:0.264583;stroke-opacity:1"
         d="m 44.599902,196.76538 11.296932,-14.21226 12.025767,12.93681"
         id="path2705" /><g
         style="fill:#000000"
         id="g78782"
         transform="matrix(0.1381501,0,0,0.1381501,42.724906,132.52758)"><g
           id="g78772">
	<g
   id="g78770">
		<path
   d="m 80.472,6.215 c 0,0 -35.966,1.718 -40.245,44.528 0,0 -0.425,11.554 -8.131,16.26 0,0 -11.991,7.705 -5.993,28.251 0,0 2.571,12.847 -8.565,20.126 0,0 -9.416,8.135 -3.416,19.697 0,0 3.854,3.857 -3,10.703 0,0 -5.995,10.703 4.282,25.259 0,0 -1.282,-10.692 1.283,-13.265 0,0 8.988,10.692 6.854,17.981 0,0 14.558,-8.138 35.53,-9.845 0,0 25.26,-4.722 22.695,-36.818 0,0 -23.547,-18.41 -22.695,-34.684 l 2.998,-23.97 c 0,0 9.85,-11.976 10.704,-16.692 0,0 6.85,10.271 -1.716,17.977 0,0 14.988,-3.427 9.851,-24.835 0,0 3.419,-7.705 5.565,-7.272 0,0 7.277,18.832 28.691,20.12 0,0 3.414,21.398 16.689,23.546 0,0 0.428,32.102 -18.413,45.381 0,0 -4.279,37.676 33.396,39.389 0,0 -6.851,17.121 8.133,20.546 0,0 -2.567,-16.694 9.848,-16.694 l 5.565,6.841 c 0,0 13.275,-16.69 7.278,-28.242 0,0 -12.414,-5.997 -7.703,-21.833 0,0 7.703,-5.986 -3.001,-13.701 0,0 -2.14,-3 1.73,-6.419 0,0 13.266,-11.136 -8.997,-35.539 l -0.846,-22.263 c 0,0 -5.994,-33.39 -46.662,-49.237 -0.015,-0.005 -29.138,-5.575 -31.709,4.704 z"
   id="path78768" />
	</g>
</g></g></g><g
       style="fill:#000000"
       id="gcapsulelogo"
       transform="matrix(1.0965109,0,0,1.0965109,192.13955,10.402583)"><path
         fill="#ffffff"
         d="m 13.346,8.698 c -0.17,0.575 -0.817,0.859 -1.38,0.63 C 11.456,9.122 11.202,8.57 11.326,8.045 11.406,7.711 11.463,7.394 11.498,7.092 11.568,6.517 11.567,6.006 11.496,5.559 11.426,5.112 11.286,4.741 11.078,4.448 A 1.712,1.712 0 0 0 10.288,3.8 C 9.71,3.566 9.071,3.658 8.371,4.078 7.674,4.49 6.956,5.22 6.217,6.268 5.481,7.308 4.763,8.655 4.065,10.305 c -0.71,1.68 -1.182,3.146 -1.416,4.399 -0.228,1.247 -0.244,2.253 -0.049,3.019 0.202,0.76 0.59,1.256 1.164,1.49 0.318,0.128 0.652,0.163 1.001,0.104 0.356,-0.065 0.717,-0.224 1.084,-0.477 0.37,-0.252 0.736,-0.597 1.1,-1.036 0.19,-0.226 0.377,-0.478 0.557,-0.754 0.299,-0.455 0.883,-0.666 1.391,-0.453 0.56,0.234 0.806,0.883 0.505,1.401 A 16.48,16.48 0 0 1 8.214,19.774 C 7.588,20.592 6.934,21.272 6.25,21.816 5.57,22.352 4.886,22.711 4.201,22.893 A 3.08,3.08 0 0 1 2.228,22.771 C 1.294,22.392 0.65,21.607 0.293,20.416 -0.062,19.226 -0.095,17.701 0.197,15.844 0.487,13.986 1.132,11.878 2.129,9.52 3.129,7.155 4.198,5.219 5.334,3.712 6.473,2.198 7.598,1.143 8.709,0.548 c 1.111,-0.596 2.13,-0.706 3.058,-0.33 0.591,0.24 1.069,0.635 1.432,1.184 0.364,0.55 0.604,1.237 0.72,2.063 0.12,0.82 0.106,1.76 -0.043,2.82 a 16.27,16.27 0 0 1 -0.53,2.413 z"
         id="path2852"
         style="fill:#000000" /><path
         fill="#ffffff"
         d="m 9.724,12.271 c 0.2565793,-0.590531 0.938603,-0.867075 1.534,-0.622 l 0.057,0.024 c 0.599,0.242 0.883,0.915 0.635,1.501 -0.256568,0.589985 -0.93788,0.866421 -1.533,0.622 L 10.36,13.773 C 9.7638995,13.539693 9.4766998,12.861432 9.724,12.271 Z"
         id="path2854"
         style="fill:#000000" /></g><g
       style="fill:#000000"
       id="gazteclogo"
       transform="matrix(0.70070927,0,0,0.70070927,299.22481,216.06343)"><path
         fill="currentColor"
         fill-rule="evenodd"
         d="m 17.031,1.191 10.07,10.07 a 4.066,4.066 0 0 1 0,5.75 l -10.09,10.09 a 4.066,4.066 0 0 1 -5.75,0 L 1.19,17.031 a 4.066,4.066 0 0 1 0,-5.75 L 11.28,1.191 a 4.066,4.066 0 0 1 5.75,0 z m -3.556,2.554 -0.041,0.039 -9.65,9.65 a 1.017,1.017 0 0 0 -0.039,1.397 l 0.039,0.04 9.636,9.638 c 0.384,0.383 0.998,0.396 1.398,0.038 l 0.04,-0.038 9.65,-9.651 a 1.017,1.017 0 0 0 0,-1.438 L 14.872,3.784 A 1.017,1.017 0 0 0 13.475,3.745 Z m 0.855,4.249 5.969,5.968 c 0.099,0.1 0.099,0.26 0,0.36 l -5.977,5.977 a 0.255,0.255 0 0 1 -0.36,0 l -5.968,-5.97 a 0.252,0.252 0 0 1 0,-0.359 L 13.97,7.994 c 0.1,-0.1 0.26,-0.1 0.36,0 z"
         clip-rule="evenodd"
         id="path2954"
         style="fill:#000000" /></g><g
       style="fill:#000000"
       id="gblysslogo"
       transform="matrix(0.45410523,0,0,0.45410523,295.65905,179.31448)"><path
         d="m 8.63069,26.432 c -1.68,0 -3.288,-0.768 -4.824,-2.304 h -0.108 L 3.33869,26 H 0.0626888 V 0.583999 H 4.20269 V 7.136 l -0.108,2.952 c 0.744,-0.648 1.56,-1.176 2.448,-1.584 0.888,-0.408 1.776,-0.612 2.664,-0.612 2.20801,0 3.92401,0.816 5.14801,2.448 1.224,1.632 1.836,3.804 1.836,6.516 0,2.016 -0.36,3.744 -1.08,5.184 -0.72,1.416 -1.656,2.508 -2.808,3.276 -1.128,0.744 -2.35201,1.116 -3.67201,1.116 z m -0.864,-3.42 c 1.176,0 2.16,-0.516 2.95201,-1.548 0.792,-1.032 1.188,-2.544 1.188,-4.536 0,-1.776 -0.3,-3.156 -0.9,-4.14 -0.6,-0.984 -1.57201,-1.476 -2.91601,-1.476 -1.248,0 -2.544,0.66 -3.888,1.98 v 8.244 c 0.624,0.528 1.236,0.912 1.836,1.152 0.624,0.216 1.2,0.324 1.728,0.324 z m 15.17311,3.42 c -1.464,0 -2.508,-0.444 -3.132,-1.332 -0.6,-0.888 -0.9,-2.1 -0.9,-3.636 V 0.583999 h 4.14 V 21.68 c 0,0.504 0.096,0.864 0.288,1.08 0.192,0.192 0.396,0.288 0.612,0.288 0.096,0 0.18,0 0.252,0 0.096,-0.024 0.228,-0.048 0.396,-0.072 l 0.54,3.096 c -0.24,0.096 -0.552,0.18 -0.936,0.252 -0.36,0.072 -0.78,0.108 -1.26,0.108 z m 5.4895,6.84 c -0.48,0 -0.9,-0.036 -1.26,-0.108 -0.36,-0.072 -0.708,-0.156 -1.044,-0.252 l 0.756,-3.24 c 0.168,0.048 0.36,0.096 0.576,0.144 0.24,0.072 0.468,0.108 0.684,0.108 0.936,0 1.68,-0.288 2.232,-0.864 0.576,-0.552 1.008,-1.272 1.296,-2.16 l 0.324,-1.116 -6.948,-17.46 h 4.212 l 3.06,8.676 c 0.264,0.768 0.516,1.584 0.756,2.448 0.264,0.84 0.528,1.68 0.792,2.52 h 0.144 c 0.216,-0.816 0.432,-1.644 0.648,-2.484 0.24,-0.864 0.468,-1.692 0.684,-2.484 l 2.664,-8.676 h 3.996 l -6.408,18.468 c -0.744,1.992 -1.644,3.564 -2.7,4.716 -1.056,1.176 -2.544,1.764 -4.464,1.764 z m 20.1282,-6.84 c -1.2,0 -2.4,-0.228 -3.6,-0.684 -1.2,-0.48 -2.232,-1.068 -3.096,-1.764 l 1.944,-2.664 c 0.792,0.6 1.584,1.08 2.376,1.44 0.792,0.36 1.632,0.54 2.52,0.54 0.96,0 1.668,-0.204 2.124,-0.612 0.456,-0.408 0.684,-0.912 0.684,-1.512 0,-0.504 -0.192,-0.912 -0.576,-1.224 -0.36,-0.336 -0.828,-0.624 -1.404,-0.864 -0.576,-0.264 -1.176,-0.516 -1.8,-0.756 -0.768,-0.288 -1.536,-0.636 -2.304,-1.044 -0.744,-0.432 -1.356,-0.972 -1.836,-1.62 -0.48,-0.672 -0.72,-1.5 -0.72,-2.484 0,-1.56 0.576,-2.832 1.728,-3.816 1.152,-0.984 2.712,-1.476 4.68,-1.476 1.248,0 2.364,0.216 3.348,0.648 0.984,0.432 1.836,0.924 2.556,1.476 l -1.908,2.52 c -0.624,-0.456 -1.26,-0.816 -1.908,-1.08 -0.624,-0.288 -1.284,-0.432 -1.98,-0.432 -0.888,0 -1.548,0.192 -1.98,0.576 -0.432,0.36 -0.648,0.816 -0.648,1.368 0,0.696 0.36,1.224 1.08,1.584 0.72,0.36 1.56,0.708 2.52,1.044 0.816,0.288 1.608,0.648 2.376,1.08 0.768,0.408 1.404,0.948 1.908,1.62 0.528,0.672 0.792,1.56 0.792,2.664 0,1.512 -0.588,2.808 -1.764,3.888 -1.176,1.056 -2.88,1.584 -5.112,1.584 z m 14.0639,0 c -1.2,0 -2.4,-0.228 -3.6,-0.684 -1.2,-0.48 -2.232,-1.068 -3.096,-1.764 l 1.944,-2.664 c 0.792,0.6 1.584,1.08 2.376,1.44 0.792,0.36 1.632,0.54 2.52,0.54 0.96,0 1.668,-0.204 2.124,-0.612 0.456,-0.408 0.684,-0.912 0.684,-1.512 0,-0.504 -0.192,-0.912 -0.576,-1.224 -0.36,-0.336 -0.828,-0.624 -1.404,-0.864 -0.576,-0.264 -1.176,-0.516 -1.8,-0.756 -0.768,-0.288 -1.536,-0.636 -2.304,-1.044 -0.744,-0.432 -1.356,-0.972 -1.836,-1.62 -0.48,-0.672 -0.72,-1.5 -0.72,-2.484 0,-1.56 0.576,-2.832 1.728,-3.816 1.152,-0.984 2.712,-1.476 4.68,-1.476 1.248,0 2.364,0.216 3.348,0.648 0.984,0.432 1.836,0.924 2.556,1.476 l -1.908,2.52 c -0.624,-0.456 -1.26,-0.816 -1.908,-1.08 -0.624,-0.288 -1.284,-0.432 -1.98,-0.432 -0.888,0 -1.548,0.192 -1.98,0.576 -0.432,0.36 -0.648,0.816 -0.648,1.368 0,0.696 0.36,1.224 1.08,1.584 0.72,0.36 1.56,0.708 2.52,1.044 0.816,0.288 1.608,0.648 2.376,1.08 0.768,0.408 1.404,0.948 1.908,1.62 0.528,0.672 0.792,1.56 0.792,2.664 0,1.512 -0.588,2.808 -1.764,3.888 -1.176,1.056 -2.88,1.584 -5.112,1.584 z"
         fill="#e9e9e9"
         id="path8966"
         style="fill:#000000" /></g><g
       style="fill:#000000"
       id="gsuccinctlogo"
       transform="matrix(0.0695003,0,0,0.0695003,270.91568,139.25929)"><path
         fill="currentColor"
         fill-rule="evenodd"
         d="m 0.054,102.776 a 5.48,5.48 0 0 0 3.662,5.163 l 89.882,31.485 a 3.75,3.75 0 0 0 4.985,-3.537 V 87.736 L 226.336,42.944 a 5.475,5.475 0 0 0 0,-10.336 L 135.095,0.616 a 10.973,10.973 0 0 0 -7.249,0 L 3.727,44.136 A 5.473,5.473 0 0 0 0.06,49.304 c 0,0 -0.012,40.6 -0.006,53.472 z"
         clip-rule="evenodd"
         id="path12607"
         style="fill:#000000" /><path
         fill="currentColor"
         fill-rule="evenodd"
         d="m 229.946,127.223 a 5.474,5.474 0 0 0 -3.667,-5.133 L 136.401,90.605 a 3.741,3.741 0 0 0 -3.405,0.48 3.751,3.751 0 0 0 -1.579,3.056 v 48.123 L 3.665,187.056 a 5.478,5.478 0 0 0 -2.656,8.336 5.484,5.484 0 0 0 2.656,2 l 91.251,31.992 c 2.345,0.821 4.899,0.821 7.243,0 l 124.126,-43.52 a 5.472,5.472 0 0 0 3.661,-5.167 c 0,0 0.005,-40.6 0,-53.474 z"
         clip-rule="evenodd"
         id="path12609"
         style="fill:#000000" /></g><g
       transform="matrix(0.01279759,0,0,-0.01279759,141.50281,114.48022)"
       fill="#000000"
       stroke="none"
       id="gezkllogo"><path
         d="m 53,1988 c -20,-33 22,-98 64,-98 h 24 l -6,-137 c -3,-76 -7,-200 -9,-276 -3,-135 -4,-138 -31,-163 -15,-14 -25,-28 -22,-31 3,-3 21,9 39,26 18,17 36,31 41,31 4,0 8,78 9,173 1,141 3,157 8,87 l 6,-85 3,65 c 1,36 4,133 6,215 3,83 7,162 11,178 4,20 2,27 -9,27 -8,0 -17,-13 -20,-29 -10,-48 -87,-62 -87,-15 0,7 7,20 16,28 14,15 13,16 -10,16 -14,0 -28,-6 -33,-12 z"
         id="path15530" /><path
         d="m 280,1921 c 0,-44 -4,-81 -10,-83 -6,-2 -10,-86 -10,-220 l -1,-216 -34,-24 c -31,-21 -51,-46 -42,-54 8,-8 87,37 87,50 0,10 6,13 15,10 20,-8 19,13 0,24 -13,7 -11,13 14,34 16,15 53,43 83,64 29,20 79,57 111,81 31,23 61,43 66,43 5,0 11,7 15,15 4,12 -3,11 -34,-5 -22,-11 -40,-24 -40,-29 0,-13 -169,-123 -179,-117 -5,4 -12,0 -15,-6 -3,-7 -4,100 -2,237 2,138 2,256 -1,263 -13,34 -23,4 -23,-67 z"
         id="path15532" /><path
         d="m 558,1843 c -2,-87 -1,-161 2,-165 3,-4 12,-3 20,2 12,7 14,26 12,85 -2,62 0,75 13,75 12,0 15,15 15,80 v 80 h -29 -30 z"
         id="path15534" /><path
         d="m 706,1913 c -4,-49 -8,-109 -10,-135 -2,-27 -1,-48 2,-48 2,0 36,24 76,53 39,30 91,67 116,83 72,46 94,71 96,104 2,42 -20,33 -24,-9 -3,-27 -14,-39 -74,-79 -39,-26 -89,-58 -111,-71 -40,-24 -40,-24 -35,-3 4,12 2,25 -3,28 -5,3 -7,39 -3,85 6,68 5,79 -9,79 -12,0 -16,-18 -21,-87 z"
         id="path15536" /><path
         d="m 1072,1970 c -46,-33 -56,-56 -19,-44 12,3 24,11 25,15 2,5 9,9 16,9 7,0 18,11 24,25 15,33 4,32 -46,-5 z"
         id="path15538" /><path
         d="m 1338,1993 c 12,-5 -135,-105 -228,-154 -25,-13 -46,-27 -48,-31 -2,-5 -9,-8 -16,-8 -7,0 -21,-8 -32,-17 -11,-10 -37,-27 -57,-37 -21,-11 -49,-30 -63,-43 -14,-13 -31,-23 -38,-23 -7,0 -23,-9 -36,-20 -13,-11 -29,-20 -37,-20 -7,0 -16,-7 -19,-15 -4,-8 -15,-15 -25,-15 -11,0 -22,-7 -25,-15 -4,-8 -11,-15 -16,-15 -6,0 -20,-10 -32,-23 -11,-12 -38,-33 -58,-46 -21,-12 -38,-27 -38,-32 0,-15 10,-10 71,36 33,25 61,45 64,45 2,0 37,23 77,50 40,28 77,50 83,50 6,0 22,10 34,21 27,25 197,129 211,129 6,0 10,4 10,9 0,5 10,13 23,17 12,4 24,10 27,13 9,12 107,71 118,71 5,0 12,4 14,8 5,13 78,52 98,52 10,0 22,5 25,10 4,6 -14,10 -47,9 -29,0 -47,-3 -40,-6 z"
         id="path15540" /><path
         d="m 1470,1990 c 0,-5 6,-13 13,-17 6,-4 19,-21 27,-36 8,-16 25,-40 37,-53 25,-27 29,-49 13,-59 -14,-8 -66,48 -92,98 -14,29 -23,36 -31,28 -8,-8 0,-27 31,-70 23,-33 42,-67 42,-76 0,-32 -32,-13 -75,46 -25,34 -45,56 -45,50 0,-18 30,-73 52,-97 16,-18 17,-23 4,-33 -12,-10 -20,-7 -45,21 -17,18 -34,43 -37,55 -3,13 -10,20 -15,17 -11,-7 -12,-44 -1,-44 5,0 17,-16 28,-35 14,-26 15,-38 7,-46 -16,-16 -28,-6 -63,56 -17,30 -35,55 -39,55 -13,0 0,-48 15,-61 8,-6 14,-16 14,-22 0,-6 8,-19 17,-29 13,-14 14,-21 4,-31 -17,-17 -41,1 -69,54 -22,43 -42,61 -42,40 0,-7 12,-35 27,-64 36,-69 40,-91 14,-77 -27,14 -58,55 -73,96 -6,19 -18,34 -25,34 -14,0 -6,-23 34,-97 13,-23 20,-49 17,-58 -5,-13 -11,-10 -34,15 -15,17 -35,49 -45,71 -16,33 -20,37 -28,23 -5,-9 -5,-19 -1,-23 15,-10 54,-87 54,-105 0,-9 -4,-16 -9,-16 -12,0 -61,62 -61,77 0,8 -10,24 -21,36 l -22,22 7,-27 c 3,-16 20,-49 36,-75 33,-52 36,-63 17,-63 -14,0 -47,35 -47,50 0,6 -4,10 -8,10 -4,0 -13,14 -20,32 -9,25 -15,29 -24,20 -8,-8 -5,-21 16,-51 27,-39 38,-69 29,-84 -6,-9 -43,38 -67,85 -10,21 -23,35 -27,32 -14,-8 -11,-19 10,-43 11,-12 27,-44 36,-70 l 18,-47 65,33 c 37,18 71,38 76,43 6,6 18,10 28,10 10,0 21,7 24,15 4,8 14,15 24,15 10,0 23,7 30,15 7,8 18,15 24,15 7,0 34,14 61,31 26,17 56,31 67,32 10,1 18,7 18,14 0,8 14,16 31,20 17,3 35,14 41,23 7,10 19,15 29,13 11,-3 21,1 25,11 3,8 21,18 40,22 19,3 34,9 34,13 0,4 37,25 83,46 45,21 90,46 100,56 10,11 29,19 42,19 16,0 25,6 25,16 0,12 -5,14 -17,9 -10,-4 -29,-10 -43,-13 -14,-3 -30,-12 -36,-20 -6,-8 -16,-12 -22,-8 -7,4 -12,3 -12,-1 0,-5 -11,-10 -25,-11 -18,-1 -23,2 -19,13 4,8 1,15 -6,15 -8,0 -9,-10 -5,-31 7,-31 6,-32 -21,-25 -31,8 -56,33 -76,79 -7,15 -21,27 -30,27 -24,0 -23,-13 2,-35 11,-10 20,-26 20,-37 0,-10 3,-17 8,-15 4,1 17,-8 28,-19 l 22,-22 -25,-11 c -22,-10 -28,-8 -59,26 -18,21 -34,43 -34,48 0,6 -12,22 -25,38 -24,27 -45,35 -45,17 z"
         id="path15542" /><path
         d="m 1920,1842 c 0,-9 12,-25 27,-33 16,-10 27,-27 29,-44 2,-15 8,-33 13,-38 18,-18 13,38 -6,74 -28,53 -63,76 -63,41 z"
         id="path15544" /><path
         d="m 1825,1821 c -4,-7 2,-31 15,-55 27,-54 72,-104 78,-87 5,15 -29,81 -41,81 -4,0 -6,4 -2,9 3,5 -5,22 -18,37 -17,20 -26,24 -32,15 z"
         id="path15546" /><path
         d="m 1720,1771 c 0,-10 9,-30 20,-44 11,-14 20,-30 20,-36 0,-6 5,-11 10,-11 6,0 10,-7 10,-15 0,-8 9,-19 19,-24 16,-9 19,-7 17,14 0,14 -4,25 -7,25 -9,0 -49,76 -49,94 0,9 -8,16 -20,16 -13,0 -20,-7 -20,-19 z"
         id="path15548" /><path
         d="m 1637,1733 c -12,-12 -7,-32 12,-50 10,-10 20,-27 22,-37 4,-21 55,-63 65,-53 4,3 -1,13 -10,22 -9,9 -16,21 -16,27 0,5 -9,21 -20,35 -11,14 -20,34 -20,44 0,19 -20,26 -33,12 z"
         id="path15550" /><path
         d="m 686,1705 c -41,-28 -106,-90 -106,-102 0,-4 13,6 29,21 17,16 30,23 33,16 2,-7 14,-1 31,14 16,14 34,26 42,26 18,0 24,11 16,33 -6,17 -10,16 -45,-8 z"
         id="path15552" /><path
         d="m 1550,1695 c -9,-10 -9,-15 -1,-15 6,0 11,-8 11,-18 0,-11 9,-27 20,-37 11,-10 20,-25 20,-34 0,-9 9,-22 21,-29 19,-12 20,-11 17,10 -2,13 -11,32 -20,42 -10,11 -18,28 -18,39 0,22 -18,57 -29,57 -5,0 -14,-7 -21,-15 z"
         id="path15554" /><path
         d="m 1470,1658 c 0,-13 9,-34 20,-48 11,-14 20,-29 20,-35 1,-15 37,-55 49,-55 6,0 11,-4 11,-9 0,-5 3,-16 6,-25 4,-10 -2,-17 -20,-22 -28,-7 -56,9 -56,33 0,7 -11,26 -26,41 -14,15 -27,38 -30,52 -3,14 -15,37 -26,50 l -20,25 5,-42 c 3,-23 12,-50 21,-58 9,-9 16,-20 16,-25 0,-8 25,-40 62,-81 16,-17 16,-18 -1,-24 -23,-7 -71,11 -71,26 0,7 -11,27 -26,46 -14,18 -30,47 -36,63 -10,31 -22,38 -33,20 -8,-13 46,-109 82,-144 27,-27 27,-28 8,-42 -23,-17 -57,-18 -53,-1 1,6 -14,37 -35,68 -20,31 -37,60 -37,66 0,14 -24,63 -31,63 -3,0 -5,-13 -4,-29 2,-35 34,-98 69,-136 30,-32 33,-50 9,-63 -14,-8 -24,0 -54,43 -21,30 -45,71 -55,92 -23,49 -24,50 -33,34 -9,-14 40,-116 65,-137 8,-6 14,-19 14,-28 0,-9 8,-16 17,-16 11,0 14,-3 7,-10 -13,-13 -74,7 -74,24 0,7 -11,26 -25,42 -14,16 -25,37 -25,46 0,9 -4,20 -10,23 -5,3 -10,17 -10,31 0,14 -4,23 -9,19 -12,-7 -7,-85 5,-94 5,-3 15,-17 21,-31 7,-14 25,-40 40,-58 l 27,-34 -28,4 c -42,5 -111,105 -109,159 2,47 -13,52 -20,7 -6,-38 23,-107 65,-152 31,-34 27,-49 -10,-44 -19,2 -32,13 -44,38 -10,19 -22,42 -27,50 -5,8 -12,27 -16,43 -3,15 -10,27 -15,27 -16,0 -12,-56 5,-70 8,-7 15,-18 15,-25 0,-7 9,-24 21,-39 22,-28 20,-56 -6,-56 -8,0 -24,-5 -34,-12 -15,-9 -23,-9 -35,1 -9,8 -16,18 -16,23 0,5 -9,18 -20,30 -10,11 -22,41 -26,64 -6,44 -24,61 -24,24 0,-29 36,-119 56,-141 22,-24 4,-51 -18,-28 -38,39 -58,81 -64,135 -4,33 -9,52 -12,44 -2,-8 -11,-21 -20,-27 -14,-12 -14,-13 1,-13 10,0 14,-5 11,-14 -7,-19 28,-98 56,-126 14,-14 19,-25 12,-32 -24,-24 -88,56 -98,123 -5,30 -10,37 -19,29 -18,-15 -15,-24 27,-107 24,-47 33,-73 24,-73 -31,0 -86,91 -81,137 1,12 -3,19 -8,16 -6,-4 -8,3 -5,15 4,12 2,20 -3,16 -21,-13 2,-136 29,-153 6,-3 14,-19 17,-34 6,-20 4,-27 -8,-27 -23,0 -65,83 -70,141 -5,48 -12,68 -21,58 -8,-9 14,-140 29,-168 8,-17 15,-37 15,-46 0,-28 -23,-11 -47,35 -18,34 -23,56 -20,97 3,44 1,53 -12,53 -14,0 -14,-2 -1,-10 9,-6 10,-10 3,-10 -20,0 -5,-127 19,-157 12,-15 2,-47 -11,-39 -20,13 -48,84 -48,124 0,24 -6,49 -12,55 -10,9 -11,1 -8,-38 6,-63 24,-132 37,-140 15,-9 12,-25 -5,-25 -9,0 -21,12 -28,28 -6,15 -17,33 -24,40 -19,20 -17,-27 2,-52 20,-26 19,-36 -4,-36 -13,0 -21,9 -26,30 -4,16 -11,32 -16,35 -5,4 -9,26 -9,51 0,24 -5,44 -10,44 -10,0 -9,-15 7,-105 3,-16 12,-41 20,-53 8,-13 12,-26 9,-29 -8,-8 -46,27 -46,42 0,7 -7,18 -15,25 -22,18 -19,-2 5,-46 12,-20 19,-39 16,-42 -8,-7 -46,28 -46,43 0,7 -7,19 -17,26 -15,13 -16,11 -9,-16 4,-16 12,-31 17,-33 5,-2 9,-12 9,-23 0,-28 -27,-13 -39,22 -5,16 -14,29 -20,29 -6,0 -4,-15 5,-35 18,-43 18,-46 -2,-38 -8,3 -20,17 -26,32 -6,15 -12,21 -15,14 -3,-7 2,-26 10,-43 15,-29 15,-29 -4,-19 -11,6 -24,20 -29,32 -8,21 -9,21 -9,-4 -1,-14 4,-30 11,-37 9,-9 8,-12 -5,-12 -10,0 -20,7 -23,15 -4,8 -11,15 -16,15 -6,0 -3,-11 6,-25 18,-27 15,-30 -15,-15 -14,8 -19,8 -17,-2 4,-19 -41,-22 -48,-4 -3,9 -10,16 -15,16 -10,0 10,-41 26,-52 5,-4 6,-10 2,-14 -4,-4 -13,-2 -19,4 -18,18 -27,14 -22,-10 4,-22 4,-22 -5,-3 -9,21 -41,53 -41,41 0,-4 7,-17 16,-30 10,-16 12,-26 5,-31 -6,-3 -11,0 -11,8 0,8 -7,20 -15,27 -18,15 -20,-1 -3,-18 8,-8 8,-12 1,-12 -6,0 -18,10 -27,23 -15,21 -15,21 -4,-8 7,-16 17,-33 23,-37 6,-5 6,-8 -2,-8 -6,0 -19,10 -29,23 l -16,22 6,-30 7,-30 -22,25 c -15,18 -19,20 -15,7 3,-10 1,-28 -6,-40 l -11,-21 -8,22 c -5,12 -13,22 -19,22 -7,0 -8,-6 0,-19 13,-25 13,-44 0,-36 -6,4 -9,9 -6,13 2,4 -6,16 -17,27 l -20,20 12,-22 c 15,-30 14,-46 -3,-40 -10,4 -13,1 -9,-9 3,-7 0,-14 -6,-14 -6,0 -10,-12 -10,-27 1,-16 3,-21 6,-11 2,9 16,19 30,23 14,3 49,21 77,39 28,18 56,34 61,35 6,2 118,56 250,121 132,65 250,121 263,125 12,3 22,11 22,16 0,5 8,9 18,9 10,0 27,7 38,15 10,8 27,15 36,15 9,0 21,7 26,16 6,11 17,15 31,11 14,-3 21,0 21,9 0,13 11,18 36,15 7,-1 14,6 18,15 4,10 13,13 26,9 14,-4 20,-2 20,9 0,20 19,31 33,17 16,-16 24,-14 30,9 3,12 14,20 25,20 11,0 22,5 24,11 2,6 16,12 31,12 15,1 29,8 32,15 2,6 16,12 29,12 14,0 29,7 34,17 6,9 16,14 25,10 9,-3 21,1 27,9 7,8 23,14 37,14 13,0 26,7 29,15 4,9 19,15 35,15 20,0 29,5 29,16 0,12 7,15 26,11 16,-3 28,0 31,9 3,8 17,14 30,14 14,0 31,7 38,16 6,10 24,18 39,20 14,1 38,12 53,23 15,13 34,19 45,16 13,-5 18,-1 18,14 0,24 -12,26 -40,9 -25,-16 -44,-5 -68,36 -9,16 -25,38 -34,47 -10,10 -20,31 -24,46 -12,51 -44,73 -44,31 z"
         id="path15556" /><path
         d="m 913,1621 c 2,-15 13,-41 25,-56 13,-16 25,-39 28,-52 7,-26 39,-29 39,-3 0,8 -5,14 -11,13 -11,-2 -64,95 -64,116 0,6 -4,11 -10,11 -5,0 -8,-13 -7,-29 z"
         id="path15558" /><path
         d="m 881,1588 c -1,-20 3,-39 8,-43 17,-10 40,-65 30,-70 -14,-9 -58,46 -65,83 -6,28 -34,47 -34,22 0,-5 5,-10 10,-10 6,0 10,-7 10,-16 0,-9 9,-32 21,-50 11,-19 19,-42 17,-51 -4,-22 -68,71 -68,99 0,10 -4,18 -10,18 -15,0 -12,-46 3,-62 17,-17 37,-53 37,-68 0,-6 -11,-3 -26,7 l -26,17 7,-32 c 4,-18 3,-32 -3,-32 -12,0 -45,38 -48,54 -1,8 -5,23 -8,34 -10,30 12,37 24,8 5,-14 14,-26 20,-26 6,0 6,9 -1,26 -16,43 -20,46 -39,29 -14,-13 -19,-13 -23,-3 -3,7 -6,1 -6,-14 -1,-14 10,-49 24,-76 29,-59 30,-62 9,-62 -8,0 -12,4 -9,10 3,5 -3,15 -15,22 -11,7 -20,18 -20,25 0,18 -22,63 -31,63 -10,0 3,-39 28,-87 21,-39 11,-53 -18,-27 -22,19 -22,19 -15,-8 7,-30 -2,-36 -22,-16 -9,9 -12,5 -13,-17 0,-17 -3,-24 -6,-17 -8,20 -23,14 -24,-10 0,-13 -3,-17 -6,-10 -2,6 -12,12 -20,12 -9,0 -13,-6 -10,-15 4,-8 2,-17 -3,-20 -4,-3 -11,1 -13,7 -3,8 -6,5 -6,-5 -1,-14 -6,-17 -21,-12 -15,5 -18,3 -14,-8 3,-8 -2,-17 -10,-20 -9,-4 -16,-1 -17,6 0,7 -4,2 -9,-10 -7,-17 -16,-21 -45,-19 -26,2 -33,0 -26,-7 14,-14 14,-30 1,-22 -6,4 -26,-3 -45,-14 -23,-13 -35,-16 -36,-8 0,7 -5,2 -11,-10 -10,-21 -22,-27 -55,-26 -7,0 -12,-2 -11,-6 2,-19 -4,-24 -12,-11 -8,12 -10,11 -10,-7 0,-15 -5,-21 -14,-17 -7,3 -16,-2 -20,-11 -3,-9 -10,-13 -16,-10 -5,3 -10,1 -10,-4 0,-6 -4,-11 -10,-11 C 139,1050 44,993 18,970 8,962 0,947 0,937 c 0,-17 1,-17 27,1 36,25 177,111 224,137 20,11 61,33 90,49 30,16 56,31 59,35 5,7 21,16 108,63 31,16 60,35 63,40 3,5 9,9 13,8 12,-2 73,31 97,53 12,12 32,23 43,24 11,2 27,10 36,18 13,12 19,12 29,2 10,-9 11,-9 6,5 -5,13 8,24 60,50 103,51 105,52 105,60 0,4 -11,19 -24,33 -14,15 -32,45 -40,68 l -14,42 z"
         id="path15560" /><path
         d="m 1853,1593 c -7,-2 -13,-11 -13,-20 0,-8 5,-12 13,-9 6,3 20,9 30,12 9,4 17,10 17,15 0,10 -27,11 -47,2 z"
         id="path15562" /><path
         d="m 1740,1549 c 0,-5 5,-7 12,-3 6,4 8,3 5,-3 -8,-13 -77,-22 -77,-10 0,4 -5,5 -11,1 -19,-12 7,-20 57,-18 32,1 53,8 67,23 l 21,21 h -37 c -20,0 -37,-5 -37,-11 z"
         id="path15564" /><path
         d="m 1870,1484 c 0,-12 24,-49 36,-57 8,-4 14,-17 14,-27 0,-15 53,-80 64,-80 1,0 2,9 2,20 0,11 -6,20 -13,20 -7,0 -13,7 -13,15 0,8 -7,15 -15,15 -9,0 -15,6 -13,13 3,13 -43,87 -54,87 -5,0 -8,-3 -8,-6 z"
         id="path15566" /><path
         d="m 543,1469 c -14,-14 -52,-37 -75,-45 -10,-3 -18,-12 -18,-20 0,-13 94,39 107,58 8,14 -2,19 -14,7 z"
         id="path15568" /><path
         d="m 630,1463 c 0,-29 12,-63 21,-63 5,0 9,7 9,15 0,8 -5,15 -11,15 -6,0 -8,8 -4,19 3,11 1,22 -5,26 -5,3 -10,-2 -10,-12 z"
         id="path15570" /><path
         d="m 977,1431 c -5,-22 -2,-44 8,-64 8,-17 15,-35 15,-41 0,-6 11,-24 23,-40 32,-40 43,-18 13,27 -13,19 -30,61 -38,93 -14,57 -15,57 -21,25 z"
         id="path15572" /><path
         d="m 1789,1417 c 11,-18 26,-44 33,-57 30,-57 60,-90 81,-89 16,1 17,3 5,6 -9,2 -19,17 -23,33 -3,15 -15,36 -26,46 -10,9 -19,23 -19,31 0,7 -6,16 -14,19 -8,3 -16,14 -19,25 -3,10 -13,19 -22,19 -15,0 -14,-4 4,-33 z"
         id="path15574" /><path
         d="m 595,1423 c 1,-24 13,-43 26,-43 6,0 7,6 2,13 -4,6 -8,18 -8,26 0,8 -5,16 -11,18 -6,2 -10,-5 -9,-14 z"
         id="path15576" /><path
         d="m 1710,1372 c 0,-4 11,-23 25,-42 14,-19 25,-43 25,-55 0,-19 36,-52 47,-42 6,7 -23,73 -36,81 -6,4 -11,16 -11,27 0,10 -7,19 -15,19 -8,0 -15,5 -15,10 0,6 -4,10 -10,10 -5,0 -10,-4 -10,-8 z"
         id="path15578" /><path
         d="m 1527,1364 c -3,-3 3,-21 14,-40 10,-19 15,-34 11,-34 -4,0 -2,-4 4,-8 6,-4 19,-22 29,-41 26,-51 51,-75 61,-60 4,7 3,14 -4,17 -7,2 -12,9 -12,17 0,7 -7,18 -16,26 -9,7 -25,33 -36,57 -12,24 -27,46 -35,49 -12,5 -12,7 -1,14 7,5 8,9 2,9 -6,0 -13,-3 -17,-6 z"
         id="path15580" /><path
         d="m 1627,1351 c 9,-35 69,-145 81,-149 19,-6 14,26 -8,48 -11,11 -20,26 -20,34 0,8 -4,18 -10,21 -5,3 -10,17 -10,30 0,12 -7,26 -16,29 -22,9 -23,8 -17,-13 z"
         id="path15582" /><path
         d="m 444,1347 c -2,-7 2,-29 11,-48 13,-27 15,-29 11,-7 -3,14 -9,34 -13,43 -4,13 -2,16 8,13 8,-3 16,-13 17,-24 2,-10 8,-23 14,-29 9,-9 2,39 -9,58 -7,12 -33,8 -39,-6 z"
         id="path15584" /><path
         d="m 415,1323 c 4,-10 10,-28 12,-41 3,-12 10,-25 15,-28 6,-4 7,2 3,17 -15,47 -25,69 -31,69 -3,0 -3,-8 1,-17 z"
         id="path15586" /><path
         d="m 1460,1328 c 0,-8 3,-18 8,-22 4,-4 7,-11 7,-16 0,-20 70,-140 82,-140 7,0 13,-7 13,-15 0,-8 5,-15 11,-15 6,0 1,16 -11,35 -12,19 -18,35 -14,35 4,0 -2,10 -14,23 -11,12 -29,44 -40,72 -19,48 -42,71 -42,43 z"
         id="path15588" /><path
         d="m 278,1300 c -2,-6 -13,-12 -26,-13 -22,-1 -33,-37 -12,-37 6,0 10,6 10,13 0,7 17,20 38,29 28,13 32,17 15,17 -12,1 -23,-4 -25,-9 z"
         id="path15590" /><path
         d="m 1333,1254 c -3,-8 4,-28 16,-44 11,-16 21,-35 21,-43 0,-19 52,-86 68,-87 7,0 -5,27 -28,64 -22,35 -40,71 -40,80 0,9 -4,16 -10,16 -5,0 -7,7 -4,15 4,8 1,15 -5,15 -7,0 -14,-7 -18,-16 z"
         id="path15592" /><path
         d="m 1426,1251 c -14,-22 48,-141 74,-141 9,0 -15,55 -35,80 -7,8 -17,28 -22,45 -6,20 -12,25 -17,16 z"
         id="path15594" /><path
         d="m 1276,1218 c 5,-41 44,-116 74,-143 32,-29 26,4 -10,54 -17,23 -33,55 -37,71 -3,16 -9,27 -13,25 -5,-3 -11,3 -14,12 -3,10 -3,1 0,-19 z"
         id="path15596" /><path
         d="m 584,1231 c 4,-7 2,-19 -6,-28 -9,-12 -9,-15 0,-9 8,5 12,-1 12,-18 0,-14 5,-26 11,-26 16,0 7,83 -10,88 -9,3 -11,0 -7,-7 z"
         id="path15598" /><path
         d="m 245,1219 c -4,-6 -13,-8 -20,-5 -14,5 -33,-50 -21,-61 3,-4 6,1 6,10 0,10 7,17 15,17 8,0 14,3 14,8 -3,19 2,25 11,12 8,-12 10,-11 10,8 0,24 -5,28 -15,11 z"
         id="path15600" /><path
         d="m 1200,1208 c 0,-19 57,-137 74,-154 16,-15 36,-19 36,-6 0,9 -30,54 -46,67 -6,6 -19,31 -29,58 -17,44 -35,63 -35,35 z"
         id="path15602" /><path
         d="m 517,1203 c -9,-16 -19,-108 -10,-100 12,12 32,107 22,107 -4,0 -10,-3 -12,-7 z"
         id="path15604" /><path
         d="m 1912,1195 c -7,-8 -25,-17 -40,-20 -45,-10 -106,-28 -117,-36 -5,-4 -25,-10 -42,-14 -18,-3 -33,-12 -33,-18 0,-8 -3,-7 -9,2 -6,9 -11,10 -15,2 -4,-6 -16,-11 -27,-11 -10,0 -19,-5 -19,-11 0,-5 -4,-8 -8,-5 -4,2 -28,-4 -52,-15 -25,-11 -52,-18 -61,-16 -8,2 -24,-2 -33,-9 -10,-7 -24,-10 -32,-7 -7,3 -21,-2 -29,-11 -9,-9 -25,-16 -34,-16 -10,0 -24,-6 -30,-13 -6,-8 -23,-12 -40,-9 -22,3 -35,15 -56,53 -14,27 -30,49 -35,49 -10,0 -32,59 -25,70 2,4 -2,16 -10,26 -13,18 -14,16 -15,-22 0,-43 35,-107 84,-153 32,-30 35,-56 5,-48 -15,4 -23,0 -26,-14 -4,-14 -9,-17 -18,-9 -7,6 -19,8 -26,5 -8,-3 -23,7 -34,22 -11,15 -32,41 -47,59 -21,23 -28,42 -28,73 0,28 -4,41 -14,41 -25,0 -24,-25 4,-86 16,-36 40,-70 59,-83 41,-29 42,-55 2,-49 -18,3 -29,0 -28,-6 1,-6 -12,-12 -30,-14 -27,-3 -34,1 -49,30 -9,18 -25,42 -35,54 -11,12 -22,43 -26,73 -3,31 -10,50 -17,48 -33,-11 7,-123 65,-184 17,-18 28,-36 25,-42 -11,-17 -41,0 -66,37 -13,20 -32,45 -41,54 -9,9 -20,37 -23,62 -7,45 -21,60 -32,33 -7,-19 65,-167 81,-167 11,0 25,-21 25,-35 0,-3 -10,-9 -21,-16 -12,-6 -19,-7 -16,-2 3,5 -4,20 -16,34 -47,53 -68,90 -74,134 -3,27 -11,45 -19,45 -17,0 -31,-23 -16,-28 7,-2 12,-8 12,-13 0,-21 50,-118 74,-144 23,-25 27,-45 7,-45 -28,0 -100,106 -108,158 -6,37 -20,55 -35,46 -4,-3 -4,-13 1,-22 5,-9 20,-42 35,-74 14,-31 37,-69 51,-86 l 25,-30 -28,-5 c -15,-3 -27,-5 -27,-4 -2,18 -48,97 -56,97 -14,0 -2,-39 20,-65 42,-50 43,-53 16,-47 -48,9 -135,192 -91,192 10,0 16,-9 16,-24 0,-13 7,-29 16,-37 14,-11 15,-8 9,31 -4,25 -9,48 -11,51 -4,8 -60,-17 -68,-29 -6,-10 61,-150 84,-175 11,-11 16,-25 12,-29 -16,-16 -40,3 -61,47 -11,24 -25,46 -31,50 -5,3 -10,14 -10,24 0,21 -26,58 -35,49 -4,-3 5,-24 19,-47 14,-22 26,-47 26,-54 0,-7 11,-29 25,-47 14,-19 21,-36 16,-38 -20,-7 -50,19 -56,47 -3,16 -13,36 -22,43 -14,11 -15,10 -8,-12 4,-14 16,-40 26,-59 11,-18 18,-36 15,-38 -12,-13 -38,10 -56,49 -10,24 -24,50 -30,58 -18,23 -2,-26 26,-82 17,-35 20,-48 10,-48 -17,0 -31,18 -41,50 -8,25 -35,58 -35,42 0,-5 10,-33 22,-62 17,-42 19,-53 8,-60 -7,-4 -19,-6 -27,-3 -7,3 -13,-1 -13,-8 0,-11 -2,-11 -9,0 -8,12 -12,13 -25,1 -9,-7 -19,-10 -23,-7 -3,4 -12,-1 -19,-11 -12,-15 -15,-13 -30,26 -9,23 -21,42 -25,42 -9,0 -1,-28 13,-47 5,-7 6,-22 2,-35 -6,-20 -9,-18 -30,27 -19,44 -22,47 -23,23 -1,-16 3,-28 8,-28 5,0 11,-12 14,-26 4,-21 1,-25 -14,-21 -10,3 -23,-1 -30,-9 -6,-8 -18,-14 -26,-14 -8,0 -11,-5 -7,-11 4,-7 0,-9 -13,-5 -13,4 -25,0 -33,-9 -11,-13 -15,-13 -21,-3 -7,11 -9,11 -9,0 0,-9 -7,-11 -20,-7 -11,3 -20,2 -20,-3 0,-6 5,-12 12,-14 6,-2 -4,-10 -23,-17 C 76,495 0,456 0,444 c 0,-8 32,1 93,28 94,41 143,61 392,162 77,31 149,61 160,65 64,27 77,31 85,26 4,-3 10,2 14,10 3,8 16,15 29,15 14,0 30,7 37,15 7,8 20,15 30,15 9,0 20,3 24,7 11,11 79,32 88,27 4,-3 8,2 8,10 0,11 9,16 29,16 16,0 34,7 42,16 7,8 21,13 31,11 10,-3 18,-1 18,4 0,5 9,9 20,9 11,0 20,4 20,8 0,4 18,13 40,19 22,5 40,6 40,2 0,-5 9,0 20,11 11,11 25,20 30,20 16,0 24,-31 13,-49 -13,-21 -5,-77 13,-92 8,-6 14,-22 14,-36 0,-13 7,-26 15,-30 26,-9 27,3 4,42 -15,26 -24,59 -27,109 -4,67 -3,73 14,71 11,0 26,-5 33,-10 11,-6 13,-4 8,8 -7,18 25,33 44,22 6,-4 13,2 16,14 4,16 11,19 33,15 15,-4 31,-1 34,5 4,6 18,11 32,11 19,0 24,-5 24,-25 0,-46 76,-176 93,-159 3,3 -4,22 -16,42 -12,21 -32,62 -44,92 -22,52 -22,56 -6,68 28,20 47,10 53,-28 9,-54 89,-155 107,-136 4,3 1,6 -6,6 -7,0 -10,4 -7,9 3,4 -3,16 -14,26 -11,10 -24,34 -31,54 -6,20 -18,43 -26,52 -12,14 -11,19 5,39 13,16 24,21 39,16 11,-4 20,-12 20,-19 -1,-41 8,-61 49,-104 26,-26 46,-50 44,-53 -1,-2 4,-6 10,-8 17,-6 2,40 -16,51 -13,7 -57,83 -59,99 0,3 -3,9 -7,13 -12,12 4,35 34,51 17,9 27,11 24,5 -4,-6 -2,-11 3,-11 6,0 13,0 16,0 3,0 5,3 4,6 -1,13 37,33 64,34 20,0 27,-5 27,-19 0,-10 6,-24 14,-30 8,-7 17,-23 20,-36 4,-14 11,-25 16,-25 6,0 10,-6 10,-14 0,-8 7,-16 15,-20 19,-7 19,14 0,40 -8,10 -15,25 -15,32 0,7 -9,22 -20,34 -11,12 -20,29 -20,38 0,19 72,56 89,46 6,-4 11,0 11,8 0,21 -70,21 -88,1 z"
         id="path15606" /><path
         d="m 125,1163 c 5,-37 4,-37 -7,-10 -13,29 -24,33 -48,17 -11,-7 -12,-12 -4,-17 7,-5 14,-17 17,-28 4,-12 5,-10 3,8 -2,15 1,27 5,27 5,0 9,-9 9,-21 0,-14 5,-19 18,-17 12,2 18,14 20,41 2,20 -1,37 -7,37 -5,0 -8,-16 -6,-37 z"
         id="path15608" /><path
         d="m 466,1174 c -10,-26 -7,-101 3,-85 5,8 7,20 4,27 -3,7 2,23 11,36 20,29 21,48 1,22 -13,-16 -14,-16 -9,-1 8,21 -2,23 -10,1 z"
         id="path15610" /><path
         d="m 1086,1161 c -14,-21 52,-154 81,-166 23,-8 14,22 -17,56 -26,30 -35,57 -33,107 1,14 -23,17 -31,3 z"
         id="path15612" /><path
         d="m 405,1138 c -29,-16 -28,-15 -30,-48 -1,-17 3,-30 10,-30 7,0 10,11 7,31 -6,41 20,35 29,-7 7,-31 8,-29 15,29 5,39 1,43 -31,25 z"
         id="path15614" /><path
         d="m 977,1126 c -12,-30 -8,-53 18,-103 28,-54 49,-83 59,-83 13,0 -6,44 -30,73 -14,16 -24,42 -25,60 0,18 -4,41 -8,51 -7,18 -8,18 -14,2 z"
         id="path15616" /><path
         d="m 27,1109 c -3,-11 -10,-18 -16,-14 -7,4 -11,-4 -11,-19 0,-14 5,-26 10,-26 6,0 10,8 10,18 0,15 2,15 11,2 8,-12 9,-10 4,9 -5,18 -4,22 6,16 9,-6 11,-3 6,8 -3,10 -2,17 3,17 5,0 11,-10 13,-22 5,-20 5,-20 4,2 -2,32 -32,39 -40,9 z"
         id="path15618" /><path
         d="m 300,1080 c -25,-16 -51,-30 -58,-30 -7,0 -10,-5 -7,-10 4,-6 -10,-17 -29,-25 -20,-9 -36,-20 -36,-25 0,-13 37,-13 45,0 5,7 11,8 19,1 9,-7 12,-3 11,17 0,25 3,27 38,26 33,0 37,2 37,25 0,19 3,22 12,13 18,-18 23,-15 24,13 2,32 -1,31 -56,-5 z"
         id="path15620" /><path
         d="m 1788,1074 c -11,-10 16,-64 34,-70 10,-3 25,-22 34,-42 12,-29 17,-34 24,-22 6,9 6,16 0,18 -6,2 -10,9 -10,16 0,7 -9,21 -20,31 -11,10 -19,23 -17,29 3,10 -22,46 -34,46 -3,0 -8,-3 -11,-6 z"
         id="path15622" /><path
         d="m 1447,974 c -9,-10 -9,-44 1,-44 4,0 18,-24 32,-53 23,-48 55,-86 73,-87 8,0 -10,36 -34,65 -9,11 -23,38 -30,60 -15,45 -32,69 -42,59 z"
         id="path15624" /><path
         d="M 90,949 C 90,945 70,932 47,921 7,902 3,896 3,862 c 0,-20 2,-28 4,-17 7,29 33,55 55,55 10,0 18,6 18,13 0,8 4,7 10,-3 8,-13 10,-12 10,4 0,16 2,17 17,5 15,-12 16,-12 10,4 -4,10 -7,22 -7,26 0,4 -7,8 -15,8 -8,0 -15,-4 -15,-8 z"
         id="path15626" /><path
         d="m 570,942 c 0,-22 22,-72 33,-72 11,0 9,13 -8,54 -17,40 -25,46 -25,18 z"
         id="path15628" /><path
         d="m 1387,954 c -12,-12 -8,-43 12,-87 10,-23 21,-49 24,-57 3,-8 5,3 5,25 -1,22 -5,45 -9,50 -4,6 -11,25 -16,43 -4,18 -12,30 -16,26 z"
         id="path15630" /><path
         d="m 496,911 c -27,-14 -52,-33 -54,-41 -5,-13 -3,-13 11,-1 15,12 17,11 17,-5 0,-11 5,-26 11,-34 8,-11 9,-7 4,18 -5,25 -3,32 10,32 8,0 18,7 21,15 4,8 14,15 23,15 10,0 18,7 18,15 0,19 -1,18 -61,-14 z"
         id="path15632" /><path
         d="m 1319,918 c -3,-32 4,-65 17,-85 8,-12 14,-30 14,-39 0,-19 62,-84 81,-84 7,0 3,7 -9,16 -12,8 -22,21 -22,29 0,8 -6,18 -14,22 -8,4 -15,10 -15,13 0,3 -5,19 -11,35 -7,17 -14,45 -17,63 -6,33 -22,54 -24,30 z"
         id="path15634" /><path
         d="m 1190,856 c 0,-43 33,-130 62,-164 36,-42 38,-16 3,36 -14,20 -25,47 -25,59 0,12 -5,25 -11,28 -6,4 -7,19 -4,36 5,22 3,29 -9,29 -10,0 -16,-9 -16,-24 z"
         id="path15636" /><path
         d="m 345,843 c -16,-9 -36,-22 -44,-30 -12,-13 -12,-16 0,-24 8,-5 19,-8 24,-8 6,0 5,3 -2,5 -14,6 -6,34 11,34 6,0 22,9 36,20 30,24 16,25 -25,3 z"
         id="path15638" /><path
         d="m 1134,809 c 4,-54 26,-77 26,-27 0,41 -8,68 -21,68 -4,0 -7,-18 -5,-41 z"
         id="path15640" /><path
         d="m 1071,783 c 2,-21 9,-47 16,-58 7,-11 13,-26 13,-35 0,-8 12,-26 25,-39 14,-13 25,-27 25,-32 0,-5 5,-9 11,-9 6,0 1,13 -10,29 -12,16 -21,33 -21,39 0,5 -6,15 -14,21 -12,10 -22,46 -28,104 -4,35 -19,16 -17,-20 z"
         id="path15642" /><path
         d="m 1440,799 c 0,-20 24,-48 42,-49 8,0 -20,58 -33,65 -5,4 -9,-4 -9,-16 z"
         id="path15644" /><path
         d="m 1018,794 c -14,-13 -8,-81 7,-94 8,-7 15,-21 15,-32 0,-21 80,-102 90,-92 3,3 -7,16 -22,29 -36,31 -61,80 -73,143 -5,30 -13,50 -17,46 z"
         id="path15646" /><path
         d="m 1930,792 c -8,-5 -50,-17 -92,-27 -43,-10 -78,-22 -78,-27 0,-4 -13,-8 -30,-8 -16,0 -30,-4 -30,-10 0,-5 -8,-9 -17,-8 -33,2 -53,-2 -53,-12 0,-5 9,-10 20,-10 11,0 20,5 20,11 0,5 4,8 9,4 6,-3 36,3 68,13 32,11 85,27 118,37 33,10 69,24 80,31 21,15 10,19 -15,6 z"
         id="path15648" /><path
         d="m 492,783 c 28,-60 44,-83 57,-83 13,0 13,2 -1,13 -9,6 -18,24 -22,38 -3,15 -13,30 -22,33 -9,3 -14,3 -12,-1 z"
         id="path15650" /><path
         d="m 450,762 c 1,-12 40,-55 46,-49 8,8 -13,44 -31,51 -8,3 -15,2 -15,-2 z"
         id="path15652" /><path
         d="m 899,745 c -3,-40 1,-69 11,-79 13,-13 13,63 0,84 -8,13 -10,12 -11,-5 z"
         id="path15654" /><path
         d="m 150,740 c 0,-5 -8,-10 -18,-10 -10,0 -27,-7 -38,-15 -16,-12 -17,-14 -2,-15 9,0 19,6 21,13 3,6 6,2 6,-10 1,-13 5,-23 10,-23 5,0 7,9 4,20 -4,14 0,20 11,20 9,0 16,7 16,15 0,8 -2,15 -5,15 -3,0 -5,-4 -5,-10 z"
         id="path15656" /><path
         d="m 836,742 c -11,-19 13,-112 29,-112 3,0 4,20 3,45 -1,25 -6,45 -10,45 -4,0 -5,7 -2,15 6,16 -11,21 -20,7 z"
         id="path15658" /><path
         d="m 1160,724 c 0,-23 20,-55 31,-49 5,4 9,-1 9,-9 0,-15 37,-32 47,-22 4,3 0,6 -8,6 -8,0 -27,20 -42,45 -31,49 -37,53 -37,29 z"
         id="path15660" /><path
         d="m 1960,710 c -19,-11 -84,-43 -145,-71 -60,-28 -146,-68 -190,-89 -44,-21 -107,-50 -139,-64 -33,-15 -100,-47 -150,-70 -50,-24 -131,-62 -181,-84 C 1106,310 1027,274 980,253 933,231 831,184 753,149 625,92 612,84 626,70 c 13,-13 18,-13 45,3 17,9 36,14 41,10 7,-3 8,-1 4,5 -4,7 7,13 29,18 21,4 32,10 28,17 -4,7 0,8 11,4 14,-5 17,-3 12,8 -3,8 -2,14 2,13 17,-3 101,25 96,33 -3,5 4,9 15,9 12,0 21,4 21,9 0,5 20,14 45,20 25,6 45,16 45,21 0,5 6,7 14,4 7,-3 20,1 27,9 8,7 20,12 27,9 6,-2 12,1 12,6 0,6 13,13 29,17 17,3 48,20 70,36 24,17 41,24 41,17 0,-9 2,-10 8,-2 9,14 78,49 115,58 16,4 25,11 21,17 -4,7 1,9 15,4 15,-5 21,-2 21,9 0,11 9,16 29,16 15,0 45,11 65,25 21,14 41,23 46,20 5,-3 15,2 24,10 8,9 17,15 18,14 3,-2 79,34 123,59 20,11 133,63 170,77 11,5 23,7 28,7 4,-1 7,2 7,6 0,5 16,14 35,22 22,9 35,20 35,32 0,22 3,22 -40,-2 z"
         id="path15662" /><path
         d="m 763,701 c -10,-15 -9,-20 2,-25 8,-3 15,-13 15,-21 0,-9 4,-14 9,-10 6,3 14,-3 20,-12 6,-10 11,-13 11,-6 0,6 -4,14 -9,17 -5,3 -7,15 -4,26 5,19 -11,50 -26,50 -3,0 -12,-9 -18,-19 z"
         id="path15664" /><path
         d="m 1830,705 c -7,-9 -10,-18 -7,-21 7,-8 47,14 47,26 0,15 -26,12 -40,-5 z"
         id="path15666" /><path
         d="m 966,683 c 12,-49 22,-67 54,-101 47,-49 48,-31 1,34 -23,31 -41,63 -41,70 0,7 -5,16 -10,19 -7,4 -8,-3 -4,-22 z"
         id="path15668" /><path
         d="m 1570,684 c -19,-7 -49,-13 -66,-13 -16,-1 -39,-9 -50,-18 -10,-10 -32,-19 -49,-21 -16,-2 -34,-7 -40,-12 -5,-4 -39,-16 -75,-25 -36,-9 -69,-21 -75,-26 -5,-5 -24,-9 -42,-9 -18,0 -33,-4 -33,-9 0,-5 -30,-19 -67,-31 -38,-11 -75,-25 -83,-29 -9,-5 -30,-12 -48,-16 -18,-3 -30,-10 -27,-15 6,-10 -11,-17 -69,-25 -25,-4 -46,-11 -46,-16 0,-4 -17,-11 -37,-15 -52,-9 -212,-61 -245,-79 -14,-8 -33,-15 -42,-15 -23,0 -96,-24 -96,-31 0,-4 -21,-9 -47,-13 -27,-4 -59,-15 -72,-25 l -25,-19 45,9 c 81,17 116,20 94,10 -27,-12 -188,-61 -203,-61 -7,0 -12,-4 -12,-10 0,-5 -6,-7 -12,-5 -7,3 -42,-6 -78,-18 C 10,126 5,122 2,92 -1,64 2,60 22,60 c 19,0 20,2 8,11 -12,8 -9,10 13,6 16,-3 30,1 35,9 4,7 9,13 12,14 31,6 50,14 50,21 0,5 9,9 19,9 11,0 22,4 26,10 3,5 12,7 20,3 8,-3 15,0 15,6 0,6 9,11 20,11 11,0 20,5 20,10 0,6 8,10 18,10 10,0 23,5 30,12 8,8 15,8 27,-2 13,-11 14,-10 9,4 -4,11 -1,16 14,16 11,0 23,6 26,13 3,8 10,6 21,-8 17,-20 17,-20 10,4 -6,21 -5,23 14,18 12,-3 19,-1 16,3 -9,14 15,22 29,11 11,-9 14,-8 12,5 -3,34 22,23 38,-17 17,-41 43,-75 52,-67 2,3 -9,25 -26,49 -35,52 -38,74 -10,66 13,-3 20,0 20,9 0,8 8,14 18,14 19,0 149,44 159,54 4,3 16,6 27,6 16,0 25,-12 39,-50 10,-27 22,-50 26,-50 5,0 11,-7 15,-15 12,-31 -30,-14 -54,23 -58,87 -77,82 -24,-7 26,-43 40,-59 47,-52 6,6 19,11 29,11 20,0 36,28 22,39 -15,10 -54,69 -64,96 -9,23 -7,25 20,25 16,0 31,4 34,9 3,5 50,26 103,46 54,21 103,41 108,45 6,5 26,13 45,18 99,29 495,169 498,176 6,13 -1,13 -38,0 z"
         id="path15670" /><path
         d="m 1760,685 c -14,-8 -35,-14 -47,-15 -27,0 -33,-9 -24,-34 7,-19 8,-19 29,2 12,12 27,20 34,17 7,-2 22,2 32,10 28,21 8,37 -24,20 z"
         id="path15672" /><path
         d="m 697,682 c -9,-2 -14,-8 -11,-14 4,-6 2,-13 -4,-17 -8,-5 -7,-26 4,-71 8,-36 16,-72 17,-80 1,-9 9,-16 19,-16 22,0 22,2 -1,34 -21,31 -32,80 -20,88 17,10 10,34 -8,27 -16,-6 -16,-4 1,15 24,28 30,22 33,-34 4,-49 32,-127 40,-107 2,6 -3,23 -12,37 -12,19 -15,36 -11,61 11,59 -5,87 -47,77 z"
         id="path15674" /><path
         d="M 18,673 C 5,670 0,658 0,633 c 0,-30 2,-34 15,-23 17,14 21,35 5,25 -5,-3 -10,1 -10,9 0,9 7,16 15,16 8,0 15,5 15,10 0,6 -1,9 -2,9 -2,-1 -11,-3 -20,-6 z"
         id="path15676" /><path
         d="m 643,658 c -21,-35 -2,-144 33,-192 25,-35 24,-11 -1,37 -27,50 -34,134 -13,155 9,9 9,12 1,12 -7,0 -15,-6 -20,-12 z"
         id="path15678" /><path
         d="m 1639,657 c -8,-13 -2,-57 7,-57 11,0 24,21 24,40 0,7 -28,23 -31,17 z"
         id="path15680" /><path
         d="m 589,649 c -11,-71 -7,-119 10,-119 11,0 9,105 -1,116 -5,4 -8,5 -9,3 z"
         id="path15682" /><path
         d="m 920,638 c 0,-13 34,-78 41,-78 4,0 15,-3 24,-7 15,-5 14,-2 -3,18 -11,13 -30,35 -41,49 -11,14 -20,22 -21,18 z"
         id="path15684" /><path
         d="m 1575,619 c -9,-28 16,-57 32,-37 12,15 0,58 -16,58 -5,0 -13,-10 -16,-21 z"
         id="path15686" /><path
         d="m 543,622 c -14,-9 -10,-79 6,-95 8,-8 10,6 8,46 -1,31 -2,57 -2,57 0,0 -5,-4 -12,-8 z"
         id="path15688" /><path
         d="m 870,610 c 0,-19 28,-60 41,-60 11,0 1,21 -25,55 -12,15 -15,16 -16,5 z"
         id="path15690" /><path
         d="m 1516,604 c -8,-21 22,-70 35,-57 13,13 -1,73 -16,73 -7,0 -16,-7 -19,-16 z"
         id="path15692" /><path
         d="m 502,566 c 2,-27 8,-51 14,-53 8,-3 9,9 3,43 -12,64 -21,69 -17,10 z"
         id="path15694" /><path
         d="m 461,591 c -11,-7 -11,-15 -1,-47 15,-49 35,-71 24,-29 -4,17 -8,42 -8,58 0,15 0,27 0,27 -1,0 -7,-4 -15,-9 z"
         id="path15696" /><path
         d="m 820,591 c 0,-14 47,-67 53,-61 3,3 -8,20 -24,38 -16,18 -29,28 -29,23 z"
         id="path15698" /><path
         d="m 1465,588 c -2,-7 -3,-22 -1,-33 3,-11 5,-23 5,-27 1,-5 8,-8 16,-8 12,0 15,9 12,37 -4,37 -23,56 -32,31 z"
         id="path15700" /><path
         d="m 780,569 c 0,-8 11,-26 25,-39 32,-30 32,-14 0,25 -17,20 -25,25 -25,14 z"
         id="path15702" /><path
         d="m 1385,566 c -16,-6 -34,-14 -40,-17 -5,-4 -25,-10 -43,-14 -30,-6 -32,-8 -18,-23 8,-10 18,-29 21,-44 9,-33 15,-35 38,-8 10,12 23,18 29,14 6,-4 17,1 24,11 8,10 21,16 32,13 16,-5 19,0 18,27 0,18 -4,31 -8,28 -5,-2 -8,3 -8,11 0,18 -3,18 -45,2 z m 23,-38 c 2,-9 -4,-18 -13,-21 -11,-5 -15,0 -15,19 0,28 23,29 28,2 z m -58,-23 c 0,-16 -6,-25 -15,-25 -9,0 -15,9 -15,25 0,16 6,25 15,25 9,0 15,-9 15,-25 z"
         id="path15704" /><path
         d="m 387,554 c -11,-11 -8,-52 5,-60 7,-5 9,0 6,14 -5,18 -3,19 18,10 13,-6 24,-18 24,-27 0,-13 2,-14 9,-2 12,19 3,41 -15,34 -10,-3 -14,2 -14,18 0,18 -3,20 -9,10 -6,-9 -10,-10 -12,-2 -3,7 -8,9 -12,5 z"
         id="path15706" /><path
         d="m 280,519 c 0,-6 9,-13 20,-16 10,-3 23,-17 29,-32 9,-24 9,-24 10,-3 1,12 -8,31 -19,42 -22,22 -40,26 -40,9 z"
         id="path15708" /><path
         d="m 610,507 c 0,-24 32,-85 37,-70 2,6 -5,29 -16,50 -12,23 -20,31 -21,20 z"
         id="path15710" /><path
         d="m 1238,514 c -3,-3 1,-18 9,-35 8,-16 11,-38 8,-50 -6,-19 -5,-20 15,-9 15,8 19,17 15,28 -4,9 -12,29 -17,45 -10,26 -19,33 -30,21 z"
         id="path15712" /><path
         d="m 1190,499 c -12,-7 -12,-11 -2,-17 7,-5 15,-25 19,-45 8,-54 -14,-47 -29,8 -7,25 -15,45 -19,45 -17,0 -18,-19 -4,-46 8,-16 15,-35 15,-41 0,-7 10,-13 23,-13 27,0 54,37 38,53 -6,6 -11,21 -11,33 0,28 -11,36 -30,23 z"
         id="path15714" /><path
         d="m 234,479 c -3,-6 -1,-16 6,-22 10,-9 12,-8 7,4 -4,13 -1,15 14,12 10,-3 19,0 19,6 0,14 -37,14 -46,0 z"
         id="path15716" /><path
         d="m 530,476 c 0,-8 5,-18 10,-21 6,-3 10,-15 10,-25 0,-17 17,-37 25,-28 4,4 -34,88 -40,88 -3,0 -5,-6 -5,-14 z"
         id="path15718" /><path
         d="m 1100,450 c 0,-11 5,-20 10,-20 6,0 10,-11 10,-24 0,-31 26,-54 42,-38 9,9 9,12 1,12 -6,0 -19,20 -30,45 -19,48 -33,58 -33,25 z"
         id="path15720" /><path
         d="m 152,444 c -7,-8 -11,-14 -10,-15 38,-9 59,-6 56,8 -4,21 -29,24 -46,7 z"
         id="path15722" /><path
         d="m 460,441 c 0,-21 28,-73 34,-63 4,6 0,25 -9,42 -15,30 -25,38 -25,21 z"
         id="path15724" /><path
         d="m 1057,433 c 3,-10 9,-22 13,-28 4,-5 10,-22 14,-37 3,-16 13,-28 20,-28 12,0 12,6 3,30 -6,17 -15,30 -19,30 -4,0 -8,11 -8,25 0,15 -6,25 -15,25 -9,0 -12,-6 -8,-17 z"
         id="path15726" /><path
         d="m 1007,433 c -7,-13 12,-66 32,-93 21,-27 43,-20 23,8 -7,9 -15,25 -18,35 -4,9 -10,17 -14,17 -5,0 -6,9 -3,20 5,19 -11,29 -20,13 z"
         id="path15728" /><path
         d="m 420,425 c 0,-18 31,-75 40,-75 7,0 10,3 8,8 -3,4 -10,22 -17,40 -11,27 -31,45 -31,27 z"
         id="path15730" /><path
         d="m 952,412 c 2,-4 12,-31 22,-60 11,-29 26,-52 32,-52 20,0 25,16 10,29 -7,6 -21,29 -31,51 -10,22 -22,40 -27,40 -5,0 -8,-4 -6,-8 z"
         id="path15732" /><path
         d="m 6,384 c -10,-26 -7,-46 6,-42 7,3 13,11 14,19 2,28 4,30 22,20 20,-10 62,-4 62,9 0,4 -22,8 -49,8 -36,1 -51,-3 -55,-14 z"
         id="path15734" /><path
         d="m 900,392 c 0,-17 32,-72 41,-72 5,0 8,-3 8,-7 -3,-19 2,-33 11,-33 15,0 12,27 -5,44 -8,8 -15,21 -15,28 -1,25 -40,64 -40,40 z"
         id="path15736" /><path
         d="m 317,358 c 6,-41 -2,-48 -23,-20 -12,15 -13,16 -14,0 -1,-44 20,-59 46,-34 16,16 19,56 5,56 -5,0 -12,8 -15,18 -2,9 -2,0 1,-20 z"
         id="path15738" /><path
         d="m 840,376 c 0,-14 53,-102 66,-109 29,-16 25,0 -13,56 -33,49 -53,68 -53,53 z"
         id="path15740" /><path
         d="m 149,303 c 14,-27 14,-36 1,-28 -5,3 -10,2 -10,-4 0,-5 5,-13 10,-16 6,-3 10,-2 10,4 0,5 6,11 13,13 8,2 4,12 -12,28 -21,22 -22,23 -12,3 z"
         id="path15742" /><path
         d="m 690,311 c 0,-13 42,-85 52,-89 4,-2 8,-10 8,-18 0,-8 7,-14 15,-14 12,0 13,4 5,19 -5,11 -7,21 -2,24 4,2 2,3 -4,1 -6,-1 -21,15 -33,37 -23,40 -41,58 -41,40 z"
         id="path15744" /><path
         d="m 650,285 c 0,-3 11,-23 25,-45 14,-22 25,-43 25,-47 0,-5 9,-14 20,-21 12,-7 20,-8 20,-2 0,5 -5,10 -11,10 -6,0 -9,7 -5,15 3,8 -1,18 -8,22 -7,5 -21,23 -30,41 -14,27 -36,44 -36,27 z"
         id="path15746" /><path
         d="m 630,223 c 35,-62 60,-92 60,-73 0,18 -71,130 -82,130 -6,0 5,-26 22,-57 z"
         id="path15748" /><path
         d="m 563,257 c 4,-10 7,-22 7,-26 0,-4 9,-17 21,-29 11,-13 21,-31 22,-42 1,-11 8,-22 16,-25 24,-9 25,4 3,35 -12,16 -22,34 -22,40 0,5 -4,10 -10,10 -5,0 -10,6 -10,14 0,7 -8,20 -17,27 -15,12 -16,12 -10,-4 z"
         id="path15750" /><path
         d="m 200,235 c 8,-9 5,-14 -12,-18 -13,-4 -26,-1 -30,6 -6,9 -8,9 -8,0 0,-7 -16,-20 -35,-29 -20,-9 -34,-19 -31,-21 2,-3 15,1 28,8 12,7 43,17 67,24 49,12 63,29 31,38 -17,4 -19,3 -10,-8 z"
         id="path15752" /><path
         d="m 490,222 c 0,-17 62,-122 72,-122 13,0 9,13 -12,40 -11,14 -20,30 -20,35 -1,16 -40,61 -40,47 z"
         id="path15754" /><path
         d="m 450,207 c 0,-20 48,-94 74,-116 25,-21 19,1 -9,31 -14,15 -25,31 -25,35 0,4 -9,22 -20,38 -15,23 -20,25 -20,12 z"
         id="path15756" /><path
         d="m 420,180 c 0,-17 31,-72 37,-67 7,7 -19,77 -29,77 -4,0 -8,-5 -8,-10 z"
         id="path15758" /><path
         d="m 390,152 c 6,-12 9,-26 6,-31 -3,-5 3,-11 14,-14 26,-7 25,2 -6,38 -19,22 -23,24 -14,7 z"
         id="path15760" /><path
         d="m 570,147 c 0,-14 20,-37 32,-37 4,0 2,11 -4,25 -12,27 -28,34 -28,12 z"
         id="path15762" /><path
         d="m 321,103 c -12,-13 -11,-18 8,-36 11,-12 21,-16 21,-10 0,7 -4,15 -10,18 -5,3 -10,11 -10,16 0,6 10,3 22,-5 12,-9 29,-16 38,-15 13,0 13,1 0,6 -8,3 -24,14 -35,23 -18,16 -22,17 -34,3 z"
         id="path15764" /><path
         d="m 270,101 c 0,-5 6,-12 13,-15 6,-3 0,-4 -15,-1 -15,3 -29,1 -32,-4 -8,-13 41,-20 53,-8 15,15 14,24 -4,31 -8,3 -15,1 -15,-3 z"
         id="path15766" /><path
         d="m 200,95 c 7,-32 -31,-55 -56,-34 -8,6 -14,4 -18,-7 -4,-9 -13,-14 -21,-10 -8,3 -15,1 -15,-4 0,-6 16,-10 35,-10 24,0 35,-5 35,-15 0,-8 9,-15 20,-15 11,0 20,4 20,9 0,5 9,11 20,14 12,3 20,13 19,24 -1,16 -2,16 -6,1 -5,-19 -53,-26 -53,-7 0,6 8,8 19,4 16,-5 19,-2 17,20 -1,14 -6,28 -10,33 -4,4 -7,3 -6,-3 z"
         id="path15768" /><path
         d="M 505,38 C 494,31 469,20 450,14 L 415,1 466,2 c 29,0 58,4 65,9 8,5 10,9 5,9 -6,0 -1,7 10,15 19,14 19,14 -1,14 -11,0 -29,-5 -40,-11 z"
         id="path15770" /><path
         d="M 32,33 C -1,29 -9,17 12,4 18,0 26,2 28,8 30,15 38,20 46,20 55,20 58,16 55,10 52,5 58,0 69,0 81,0 90,2 90,4 90,16 77,40 71,38 68,38 50,35 32,33 Z"
         id="path15772" /></g><g
       id="gztflogo"><text
         xml:space="preserve"
         style="font-size:4.5861px;white-space:pre;inline-size:49.4422;display:inline;fill:#000000;stroke:#000000;stroke-width:0.124285;stroke-dasharray:none;stroke-dashoffset:0;stroke-opacity:1"
         x="196.42085"
         y="182.57301"
         id="text16996"
         transform="matrix(3.3230004,0,0,3.3230004,-327.21525,-577.49704)"><tspan
           x="196.42085"
           y="182.57301"
           id="tspan82748">ZTF</tspan></text></g><g
       id="gmacilogo"
       transform="translate(216.19606,-21.559647)"><text
         xml:space="preserve"
         style="font-size:4.5861px;white-space:pre;inline-size:49.4422;display:inline;fill:#000000;stroke:#000000;stroke-width:0.124285;stroke-dasharray:none;stroke-dashoffset:0;stroke-opacity:1"
         x="196.42085"
         y="182.57301"
         id="text16996-7"
         transform="matrix(3.3230004,0,0,3.3230004,-508.88487,-431.52574)"><tspan
           x="196.42085"
           y="182.57301"
           id="tspan82750">MACI</tspan></text></g><g
       transform="matrix(0.02010013,0,0,-0.02168636,152.96103,81.535462)"
       fill="#000000"
       stroke="none"
       id="gpersonaelogo"
       style="fill:#000000"><path
         d="m 344,1391 c -11,-11 -1,-22 33,-36 21,-9 41,-21 45,-28 4,-7 8,-136 8,-288 0,-300 1,-292 -57,-308 -15,-4 -29,-15 -31,-24 -3,-15 14,-17 187,-17 158,0 191,2 191,14 0,8 -21,21 -50,31 -35,12 -52,23 -55,38 -3,12 -5,143 -3,290 3,293 2,287 64,287 82,0 130,-117 105,-256 -15,-82 -37,-109 -90,-110 -48,-1 -56,-7 -47,-30 5,-14 18,-16 79,-12 157,10 245,108 235,261 -5,80 -35,125 -111,164 -52,28 -52,28 -275,28 -123,0 -225,-2 -228,-4 z m 240,-61 c -5,-36 -9,-529 -5,-567 2,-18 8,-30 14,-26 6,3 7,1 3,-6 -4,-6 -11,-9 -15,-7 -4,3 -35,6 -68,7 l -61,2 9,31 c 13,44 12,563 -1,571 -21,13 0,20 63,20 63,0 65,-1 61,-25 z m 254,-5 c 21,-11 49,-35 62,-54 19,-30 22,-44 18,-102 -5,-58 -10,-74 -43,-119 -21,-28 -43,-49 -50,-46 -7,2 -17,0 -23,-6 -6,-6 -4,9 4,33 11,30 14,71 11,138 -4,109 -6,118 -29,154 -21,30 -10,31 50,2 z"
         id="path19541"
         style="fill:#000000" /><path
         d="m 1064,1391 c -11,-12 0,-23 41,-41 l 45,-19 V 1040 748 l -40,-15 c -25,-10 -40,-22 -38,-30 2,-12 52,-15 281,-16 l 278,-2 5,25 c 2,14 11,53 19,87 28,117 9,140 -39,48 -44,-85 -66,-96 -178,-93 l -93,3 -3,288 -2,288 46,19 c 80,35 54,43 -140,44 -97,1 -179,-1 -182,-3 z m 238,-321 c -2,-215 0,-290 9,-308 18,-32 4,-39 -66,-32 l -56,5 -2,310 -2,310 h 60 60 z"
         id="path19543"
         style="fill:#000000" /><path
         d="m 320,528 v -28 h 680 680 v 28 27 H 1000 320 Z"
         id="path19545"
         style="fill:#000000" /></g><g
       transform="matrix(0.02760369,0,0,-0.02760369,125.48771,72.861612)"
       fill="#000000"
       stroke="none"
       id="gsismologo"><path
         d="m 358,771 c -10,-10 -18,-29 -19,-42 -1,-36 -14,-64 -30,-64 -8,0 -24,14 -37,32 -36,52 -55,57 -91,27 -37,-30 -38,-42 -10,-95 11,-23 16,-38 10,-34 -6,3 -11,-1 -11,-10 0,-9 -11,-31 -25,-49 -30,-40 -55,-108 -55,-151 0,-38 26,-65 63,-65 19,0 27,-5 27,-18 0,-32 69,-121 110,-142 39,-20 48,-38 53,-107 1,-13 7,-23 14,-23 7,0 13,-4 13,-10 0,-5 15,-10 33,-10 38,0 51,17 62,77 5,34 15,48 52,77 50,39 112,124 106,144 -3,8 6,12 26,12 48,0 68,26 59,80 -8,57 -34,118 -61,148 -24,26 -29,80 -9,100 6,7 12,21 12,31 0,25 -37,61 -63,61 -24,0 -77,-41 -77,-59 0,-7 -10,-11 -22,-9 -20,3 -23,9 -23,51 0,33 -4,46 -12,43 -7,-3 -10,1 -6,10 8,21 -67,18 -89,-5 z m 72,-75 c 0,-61 1,-64 28,-69 15,-3 34,-8 42,-11 11,-4 24,10 44,46 16,29 30,54 32,56 4,6 44,-23 44,-32 0,-5 -13,-30 -29,-56 l -29,-48 39,-38 c 40,-39 79,-123 79,-169 0,-21 -5,-25 -30,-25 -26,0 -30,4 -30,28 0,15 -12,51 -26,80 -77,155 -297,161 -384,9 -16,-29 -30,-67 -30,-84 0,-30 -3,-33 -31,-33 h -32 l 6,45 c 8,58 36,111 80,155 l 35,34 -33,52 -34,52 25,17 c 14,9 27,15 28,13 2,-2 16,-27 32,-56 20,-36 33,-50 44,-46 8,3 27,8 43,11 26,5 27,8 27,69 v 64 h 30 30 z M 445,539 C 573,504 629,360 556,250 532,213 468,170 437,170 c -10,0 -12,-15 -9,-65 l 4,-65 h -31 -31 v 63 c 0,63 0,63 -34,75 -51,19 -86,51 -107,96 -49,108 8,232 121,264 47,14 49,14 95,1 z"
         id="path23284" /><path
         d="m 334,471 c -46,-28 -64,-59 -64,-112 0,-62 32,-109 88,-129 37,-13 47,-13 84,0 75,26 111,119 75,190 -32,63 -122,88 -183,51 z m 125,-38 c 39,-33 44,-117 8,-145 -37,-29 -82,-33 -119,-10 -18,10 -32,24 -30,31 1,6 -2,11 -8,11 -5,0 -10,9 -10,21 0,31 30,89 46,89 8,0 14,5 14,10 0,17 76,11 99,-7 z"
         id="path23286" /></g><g
       id="gaxiomlogo"
       transform="translate(-178.48259,-10.476966)"><path
         fill="#ffffe6"
         d="m 395.50733,217.88243 -0.70672,-1.22132 c -2.08171,-3.57611 -4.16275,-7.14948 -6.24311,-10.71942 -0.0704,-0.0863 -0.0813,-0.20653 -0.0275,-0.30396 0.35542,-0.60105 0.70672,-1.20553 1.06007,-1.80864 0.0178,-0.0294 0.0411,-0.0569 0.092,-0.12689 l 9.47409,16.27161 c -0.10977,0 -0.17288,0.016 -0.23739,0.016 h -7.16595 c -0.13425,0.008 -0.25871,-0.0706 -0.31014,-0.19486 -1.68377,-3.00115 -3.36958,-6.00297 -5.05746,-9.00547 -0.51255,-0.90982 -1.0347,-1.81688 -1.55272,-2.72326 -0.0294,-0.0528 -0.0645,-0.10081 -0.13169,-0.20446 -1.96232,3.3442 -3.8835,6.66301 -5.83485,10.00928 0.0645,0.0165 0.1304,0.0275 0.19623,0.0336 h 2.36921 c 0.11777,0.002 0.22506,-0.0672 0.27101,-0.17564 0.94413,-1.62889 1.89236,-3.25639 2.84333,-4.88321 0.0432,-0.0756 0.0947,-0.14545 0.16467,-0.25043 0.16742,0.28131 0.31631,0.53106 0.46177,0.77807 0.21752,0.37119 0.42747,0.74858 0.65319,1.11633 0.0744,0.10481 0.0744,0.24518 0,0.34993 -0.97429,1.66593 -1.94586,3.33116 -2.914,4.99642 -0.0512,0.10528 -0.16273,0.16748 -0.27925,0.15569 h -7.18309 c -0.0611,0 -0.11937,0 -0.23741,-0.0112 l 9.48575,-16.28737 c 0.0569,0.0824 0.092,0.12625 0.11937,0.17496 2.67728,4.59502 5.35182,9.19003 8.02361,13.78575 0.0768,0.17331 0.25685,0.27706 0.44531,0.25661 0.64975,-0.0144 1.29953,0 1.9486,0 0.0768,-0.007 0.15361,-0.0178 0.27309,-0.0274 z"
         id="path27655"
         style="fill:#000000;stroke-width:0.686131" /></g><g
       transform="matrix(0.01200762,0,0,-0.01200762,133.05423,219.46751)"
       fill="#000000"
       stroke="none"
       id="gethereumlogo"><path
         d="M 1036,2233 C 785,1817 583,1473 587,1469 c 5,-4 211,-127 460,-274 l 452,-267 461,272 460,272 -19,32 c -10,17 -215,357 -455,756 -240,399 -440,726 -445,728 -5,2 -214,-338 -465,-755 z m 464,-273 V 961 l -63,42 c -81,54 -89,59 -167,103 -36,20 -108,62 -160,94 -52,31 -173,103 -267,159 -95,56 -173,107 -173,114 0,7 12,18 28,25 15,7 191,87 392,178 332,151 408,190 396,201 -2,2 -198,-84 -436,-192 -238,-108 -435,-193 -438,-190 -3,3 8,20 26,38 26,27 373,594 665,1087 44,74 85,142 92,150 15,17 68,121 84,163 6,15 13,27 16,27 3,0 5,-450 5,-1000 z m 66,857 c 23,-33 92,-147 199,-327 259,-434 555,-922 580,-954 l 29,-39 -24,8 c -37,12 -813,365 -827,377 -8,6 -9,17 -2,37 6,16 9,32 8,37 -5,31 2,894 9,894 4,0 17,-15 28,-33 z m 20,-981 c 32,-13 118,-51 189,-84 72,-33 157,-72 190,-87 261,-117 352,-160 365,-172 19,-18 7,-28 -160,-124 -69,-39 -141,-82 -160,-94 -34,-22 -257,-154 -410,-241 -75,-44 -75,-44 -81,-20 -8,27 -10,826 -3,838 7,10 1,12 70,-16 z"
         id="path30572" /><path
         d="m 580,1296 c 0,-3 35,-54 78,-113 43,-59 248,-348 456,-640 207,-293 381,-533 385,-533 4,0 198,269 432,597 233,329 439,618 457,641 18,24 32,45 30,47 -2,2 -28,-12 -58,-31 -30,-19 -236,-141 -457,-272 l -403,-237 -2,-360 -3,-360 -32,57 c -18,31 -83,128 -145,214 -283,394 -598,843 -605,862 -8,19 9,14 60,-18 26,-16 50,-30 53,-30 3,0 30,-16 60,-35 30,-19 57,-35 60,-35 2,0 17,-8 32,-19 15,-10 70,-43 122,-74 52,-30 153,-89 224,-131 71,-42 139,-76 150,-76 18,0 18,2 6,14 -8,7 -204,125 -435,261 -231,136 -430,255 -442,263 -13,8 -23,12 -23,8 z m 1679,-158 c -7,-13 -71,-106 -144,-208 C 1960,712 1771,445 1680,316 1547,127 1538,117 1530,130 c -9,14 -12,563 -4,585 5,12 68,54 174,115 14,9 125,74 395,234 158,94 159,94 168,95 4,1 2,-9 -4,-21 z"
         id="path30574" /></g><g
       id="gherodotuslogo"
       transform="translate(-235.73172,-5.9868374)"><path
         d="m 445.64316,140.08617 0.23005,6.02764 h -3.3589 -3.35892 l 0.23006,-2.99082 0.27607,-2.99081 h -2.94479 -2.94481 v 8.88042 8.88042 l 2.94481,2.89879 2.9908,2.94481 -0.27606,-6.02764 -0.27608,-6.07367 h 3.35892 3.3589 l -0.27606,2.99083 -0.27608,2.9908 h 2.9448 2.99081 v -8.88042 -8.88042 l -2.94479,-2.89879 -2.94481,-2.89879 z m 4.0491,0.78221 c 0.46013,1.05829 0.64418,3.08284 0.59816,6.16569 -0.046,4.23315 -0.13803,4.55524 -1.05829,4.78529 -1.10429,0.27608 -2.99081,-0.0921 -3.81903,-0.73619 -0.73621,-0.59816 -4.27918,-0.78221 -5.52152,-0.32208 -1.38037,0.50613 -1.61043,1.38037 -1.93252,7.63808 -0.046,1.15031 -0.96627,1.4724 -0.96627,0.3681 0,-0.41412 -0.27606,-0.55215 -0.69018,-0.41412 -0.50614,0.23007 -0.59816,0.0921 -0.41411,-0.46013 0.13803,-0.41411 0.046,-0.73619 -0.27608,-0.73619 -0.3681,0 -0.46013,-1.56443 -0.3681,-5.52152 0.092,-3.03682 0,-5.56751 -0.13804,-5.65953 -0.59817,-0.18405 0.27608,-3.68101 1.01228,-4.14113 0.87423,-0.55216 2.39265,0.59816 2.2086,1.61044 -0.23006,1.28835 0.64418,3.12885 1.56442,3.40492 0.55216,0.18406 2.02456,0.32209 3.2669,0.27608 2.80676,-0.0919 3.45094,-0.87424 3.54296,-4.23315 0.046,-1.38038 0.0921,-2.76076 0.18406,-2.99082 0.046,-0.27608 0.13803,-0.7362 0.13803,-1.05829 0.13804,-1.05829 1.97854,0.32209 2.66873,2.02455 z m 0.18405,13.61972 c 0,1.65645 -0.0921,1.74847 -1.38037,1.74847 -0.73621,0 -1.38039,-0.13803 -1.42639,-0.3681 0,-0.18404 -0.0921,-0.69019 -0.18405,-1.19632 -0.27608,-1.4724 0.27607,-2.11658 1.65645,-2.02456 1.19632,0.0919 1.33436,0.27608 1.33436,1.84051 z"
         id="path34219"
         style="fill:#000000;stroke:none;stroke-width:0.0460126" /></g><g
       style="fill:#000000"
       id="gespressologo"
       transform="matrix(0.85325723,0,0,0.85325723,266.57113,253.44342)"><path
         fill="url(#a)"
         d="M 20.342,5.292 H 36.204 L 35.136,9.625 H 19.274 Z"
         id="path34624"
         style="fill:#000000" /><path
         fill="url(#b)"
         d="m 1.272,18.292 h 15.862 l -1.07,4.335 H 0.204 Z"
         id="path34626"
         style="fill:#000000" /><path
         fill="#ffffff"
         d="M 8.865,5.292 H 20.342 L 21.409,0.96 H 8.865 c -0.91,0 -1.774,0.191 -2.557,0.536 A 6.498,6.498 0 0 0 2.437,7.46 c 0,1.531 0.525,2.94 1.404,4.051 a 6.388,6.388 0 0 0 5.024,2.45 h 9.341 L 19.274,9.628 H 8.865 C 7.683,9.628 6.723,8.658 6.723,7.462 A 2.152,2.152 0 0 1 8.865,5.293 Z"
         id="path34628"
         style="fill:#000000" /><path
         fill="#ffffff"
         d="M 27.545,22.627 H 16.069 L 15,26.96 h 12.544 c 0.91,0 1.774,-0.192 2.558,-0.537 a 6.504,6.504 0 0 0 3.87,-5.964 c 0,-1.532 -0.525,-2.94 -1.403,-4.052 a 6.388,6.388 0 0 0 -5.025,-2.45 h -9.34 l -1.069,4.335 h 10.409 c 1.183,0 2.142,0.97 2.142,2.167 0,1.198 -0.96,2.168 -2.142,2.168 z"
         id="path34630"
         style="fill:#000000" /></g><g
       transform="matrix(0.0128184,0,0,-0.0128184,353.95568,123.11275)"
       fill="#000000"
       stroke="none"
       id="grisczerologo"
       style="stroke-width:40.0206;stroke-dasharray:none"><path
         d="m 1775,2531 c 6,-11 2,-13 -19,-7 -20,5 -26,4 -20,-5 4,-7 2,-10 -6,-7 -19,6 -77,-52 -85,-87 -9,-41 -12,-995 -2,-995 4,0 7,-5 7,-11 0,-15 46,-80 52,-74 3,3 18,-1 34,-10 25,-13 97,-15 482,-15 490,0 525,3 577,52 l 30,28 v 517 518 l -25,34 c -14,18 -36,37 -49,42 -14,6 -226,10 -489,9 -361,0 -468,2 -480,12 -13,11 -14,11 -7,-1 z m 970,-55 c 12,-3 29,-21 38,-41 15,-32 17,-84 17,-509 0,-298 -4,-484 -10,-503 -23,-64 -16,-63 -562,-63 l -493,1 -30,24 -30,25 -3,500 c -3,549 -3,553 56,566 15,3 30,6 34,7 19,4 965,-3 983,-7 z"
         id="path34662"
         style="stroke-width:40.0206;stroke-dasharray:none" /><path
         d="m 1750,2443 c -39,-14 -40,-20 -40,-525 0,-268 1,-488 3,-488 9,0 1012,1012 1007,1015 -10,6 -952,4 -970,-2 z m 858,-38 c 3,-3 11,0 18,6 10,8 13,6 11,-10 0,-11 -4,-19 -7,-18 -3,1 -6,-2 -7,-7 -1,-5 -12,-14 -25,-21 -13,-6 -22,-17 -20,-24 1,-7 -1,-10 -6,-7 -12,7 -63,-50 -54,-60 4,-4 1,-4 -5,0 -8,4 -17,-2 -24,-18 -7,-14 -15,-23 -19,-21 -4,3 -15,-4 -25,-15 -10,-11 -15,-20 -11,-20 11,0 -17,-25 -36,-33 -10,-3 -18,-14 -18,-23 0,-10 -3,-14 -7,-11 -8,9 -93,-74 -93,-91 0,-6 -4,-11 -8,-10 -11,4 -62,-49 -55,-56 4,-3 -1,-6 -11,-6 -9,0 -21,-10 -26,-22 -5,-13 -9,-20 -9,-16 -1,4 -10,0 -20,-9 -11,-9 -18,-20 -15,-25 3,-4 -2,-8 -11,-8 -8,0 -24,-15 -35,-32 -11,-18 -20,-30 -20,-25 0,4 -8,-1 -18,-10 -11,-10 -17,-21 -15,-25 2,-5 -1,-8 -6,-8 -16,0 -51,-33 -51,-48 0,-7 -3,-11 -7,-9 -10,5 -143,-130 -135,-137 3,-3 0,-6 -7,-6 -6,0 -22,-10 -34,-23 -60,-61 -56,-91 -56,388 0,329 3,440 12,450 7,7 15,11 20,8 4,-2 7,-1 7,4 0,8 820,7 828,-2 z"
         id="path34664"
         style="stroke-width:40.0206;stroke-dasharray:none" /><path
         d="m 2248,1907 c -274,-275 -498,-503 -498,-506 0,-3 219,-5 487,-3 435,2 489,4 505,19 17,15 18,46 18,505 0,268 -3,488 -7,487 -5,0 -232,-226 -505,-502 z m 477,381 c 9,-48 1,-835 -9,-845 -12,-13 -857,-16 -869,-4 -13,13 20,54 36,44 5,-3 7,-2 4,4 -7,11 182,199 196,195 4,-1 6,1 3,6 -7,11 184,198 198,194 6,-2 7,0 3,4 -7,8 409,433 425,434 4,0 10,-15 13,-32 z"
         id="path34666"
         style="stroke-width:40.0206;stroke-dasharray:none" /><path
         d="m 250,2508 c 0,-5 -6,-8 -12,-9 -19,0 -59,-56 -67,-92 -4,-18 -7,-507 -7,-1087 1,-991 2,-1057 19,-1087 10,-18 24,-33 33,-33 8,0 12,-4 9,-10 -3,-5 -1,-10 5,-10 6,0 8,-5 5,-10 -4,-7 3,-8 21,-4 15,4 25,3 21,-2 -6,-11 939,-10 973,1 40,13 78,46 90,78 7,21 10,373 10,1094 0,883 -2,1068 -14,1095 -14,33 -51,70 -76,76 -31,7 -1010,7 -1010,0 z m 1015,-36 c 6,-4 21,-20 33,-36 l 22,-29 V 1334 260 l -28,-30 -27,-30 H 764 c -275,-1 -507,2 -515,5 -8,3 -23,19 -32,34 -16,27 -17,111 -17,1103 v 1074 l 29,32 30,32 h 498 c 274,0 503,-4 508,-8 z"
         id="path34668"
         style="stroke-width:40.0206;stroke-dasharray:none" /></g><g
       transform="matrix(0.11901914,0,0,0.11901914,239.05275,-41.464703)"
       id="gingologo"
       style="fill:#000000"><path
         d="m 332.6,478.7 c 1.7,2.9 0.4,5.2 -3,5.2 h -41 c -3.4,0 -4.7,-2.4 -3,-5.2 l 2.6,-4.3 c 1.7,-2.9 4.6,-7.6 6.3,-10.5 l 11.4,-19.1 c 1.7,-2.9 4.6,-2.9 6.3,0 l 11.4,19.1 c 1.7,2.9 4.6,7.6 6.3,10.5 z"
         fill="#ffffff"
         id="path34701"
         style="fill:#000000" /><path
         d="m 387.3,635.2 c 1.8,2.9 0.5,5.2 -2.9,5.2 H 166.1 c -3.4,0 -4.7,-2.3 -2.9,-5.2 l 32,-51.7 c 1.8,-2.9 4.7,-7.5 6.4,-10.4 l 32,-51.7 a 12.208,12.208 0 0 1 9.3,-5.2 h 64.6 a 11.89,11.89 0 0 1 9.3,5.2 l 32,51.7 c 1.8,2.9 4.7,7.5 6.4,10.4 z"
         fill="#ffffff"
         id="path34703"
         style="fill:#000000" /><path
         d="m 403,525.4 c 1.7,2.9 0.4,5.2 -3,5.2 h -41 c -3.4,0 -4.7,-2.4 -3,-5.2 l 2.6,-4.3 c 1.7,-2.9 4.6,-7.6 6.3,-10.5 l 11.4,-19.1 c 1.7,-2.9 4.6,-2.9 6.3,0 l 11.4,19.1 c 1.7,2.9 4.6,7.6 6.3,10.5 z"
         fill="#ffffff"
         id="path34705"
         style="fill:#000000" /><path
         d="m 194.4,525.4 c 1.7,2.9 0.4,5.2 -3,5.2 h -41 c -3.4,0 -4.7,-2.4 -3,-5.2 l 2.6,-4.3 c 1.7,-2.9 4.6,-7.6 6.3,-10.5 l 11.4,-19.1 c 1.7,-2.9 4.6,-2.9 6.3,0 l 11.4,19.1 c 1.7,2.9 4.6,7.6 6.3,10.5 z"
         fill="#ffffff"
         id="path34707"
         style="fill:#000000" /><path
         d="m 264.7,478.7 c 1.7,2.9 0.4,5.2 -3,5.2 h -41 c -3.4,0 -4.7,-2.4 -3,-5.2 l 2.6,-4.3 c 1.7,-2.9 4.6,-7.6 6.3,-10.5 L 238,444.8 c 1.7,-2.9 4.6,-2.9 6.3,0 l 11.4,19.1 c 1.7,2.9 4.6,7.6 6.3,10.5 z"
         fill="#ffffff"
         id="path34709"
         style="fill:#000000" /></g><g
       transform="matrix(0.01375578,0,0,-0.01334304,244.99011,238.48397)"
       fill="#000000"
       stroke="none"
       id="gmidenlogo"><path
         d="m 938,1889 c -15,-6 -94,-49 -175,-96 -81,-47 -164,-94 -183,-105 -19,-11 -39,-24 -45,-28 -9,-6 -54,-31 -168,-94 -62,-33 -118,-87 -138,-130 -17,-38 -19,-74 -19,-424 0,-302 3,-390 14,-416 31,-74 86,-115 346,-259 30,-17 100,-57 155,-90 191,-114 228,-130 298,-125 65,4 55,-1 315,149 17,11 49,28 70,40 20,12 42,25 47,29 6,4 35,21 65,37 187,102 238,141 271,205 18,35 19,63 19,423 0,420 -1,428 -58,488 -24,26 -113,83 -232,150 -25,14 -133,75 -240,137 -180,104 -200,113 -255,116 -33,2 -72,-1 -87,-7 z m 182,-52 c 30,-17 65,-36 77,-41 13,-6 23,-14 23,-18 0,-5 7,-8 17,-8 9,0 30,-10 47,-23 17,-12 45,-29 61,-37 17,-8 32,-18 35,-21 3,-3 27,-16 53,-28 26,-13 53,-28 60,-35 7,-6 37,-24 67,-40 30,-16 57,-32 60,-35 3,-3 18,-13 34,-21 36,-18 106,-88 106,-105 0,-7 6,-15 13,-17 9,-4 13,-90 15,-376 3,-361 2,-372 -18,-418 -12,-26 -31,-56 -43,-68 -35,-35 -97,-79 -97,-70 0,5 -5,2 -10,-6 -5,-8 -13,-15 -18,-15 -5,0 -38,-17 -73,-39 -35,-21 -93,-54 -129,-73 -36,-20 -98,-55 -137,-79 -40,-24 -77,-44 -82,-44 -5,0 -11,-4 -13,-9 -1,-5 -26,-20 -55,-35 -60,-30 -141,-35 -187,-11 -64,34 -111,60 -116,66 -3,3 -25,16 -50,30 -25,13 -47,26 -50,29 -3,3 -14,10 -25,16 -86,46 -111,60 -115,64 -5,5 -20,14 -99,58 -25,14 -48,28 -51,32 -3,3 -19,12 -36,19 -52,21 -130,106 -143,156 -7,28 -11,168 -11,387 0,314 2,346 19,383 25,52 106,135 133,135 6,0 26,11 44,25 18,14 52,34 76,46 69,32 103,52 106,61 2,4 10,8 17,8 7,0 15,3 17,8 2,4 26,18 53,32 28,14 56,31 63,37 7,7 20,13 28,13 8,0 14,5 14,10 0,6 6,10 14,10 8,0 16,3 18,8 2,4 30,21 63,39 81,43 147,43 225,0 z"
         id="path34736" /><path
         d="m 925,1793 c -22,-9 -44,-22 -48,-30 -4,-7 -15,-13 -24,-13 -9,0 -40,-16 -69,-35 -29,-19 -57,-35 -63,-35 -6,0 -11,-4 -11,-10 0,-5 -7,-10 -15,-10 -8,0 -46,-20 -84,-45 -38,-25 -74,-45 -80,-45 -6,0 -11,-3 -11,-7 0,-5 -20,-17 -45,-28 -25,-11 -45,-23 -45,-27 0,-5 -7,-8 -16,-8 -8,0 -22,-6 -30,-14 -7,-8 -24,-23 -37,-33 -59,-47 -57,-35 -57,-443 0,-337 2,-378 17,-400 23,-34 75,-80 91,-80 6,0 12,-4 12,-10 0,-5 8,-10 17,-10 9,0 24,-6 32,-14 37,-31 112,-43 181,-29 32,6 140,97 140,118 0,9 47,111 140,300 107,218 174,361 176,374 2,8 7,17 12,20 5,3 11,19 14,35 4,22 0,35 -18,53 -43,42 -202,27 -267,-26 -47,-38 -87,-86 -87,-104 0,-7 -6,-19 -12,-25 -9,-9 -15,-70 -18,-200 -5,-185 -5,-187 -27,-190 l -23,-3 v 195 c 0,124 4,196 10,196 6,0 10,7 10,15 0,18 59,102 92,130 102,88 201,114 311,80 59,-18 75,-11 116,49 17,24 53,62 81,86 27,23 50,47 50,53 -1,14 -35,57 -45,57 -4,0 -30,15 -58,34 -137,91 -227,113 -312,79 z m 153,-23 c 20,-11 60,-33 87,-50 28,-17 77,-44 110,-61 l 59,-31 -36,-19 c -47,-24 -104,-83 -125,-129 -9,-19 -17,-36 -19,-38 -1,-2 -20,5 -43,14 -64,25 -190,17 -261,-18 -114,-56 -190,-157 -210,-279 -13,-82 -13,-221 0,-290 11,-59 41,-139 52,-139 4,0 17,21 29,48 19,42 22,66 23,217 1,150 4,175 23,216 39,85 132,148 225,151 43,1 120,-12 116,-20 -2,-4 -19,-41 -40,-82 C 985,1088 851,807 800,697 737,561 692,507 630,490 c -52,-14 -90,-6 -160,32 -30,17 -67,37 -81,44 -14,8 -34,23 -45,35 -18,20 -19,43 -21,403 l -3,381 23,26 c 18,22 155,106 317,196 14,8 43,25 65,39 22,13 47,27 55,31 8,4 55,31 104,60 100,59 134,65 194,33 z"
         id="path34738" /><path
         d="m 1375,1551 c -63,-16 -124,-67 -125,-103 0,-10 -4,-18 -10,-18 -5,0 -10,-5 -10,-12 0,-6 -37,-86 -81,-177 -45,-91 -92,-188 -104,-216 -52,-115 -72,-155 -77,-150 -2,2 -12,-19 -23,-48 -10,-28 -21,-56 -25,-62 -4,-5 -11,-28 -14,-51 -10,-55 7,-68 92,-68 66,-1 152,19 152,36 0,4 6,8 13,8 22,0 67,50 97,110 29,58 30,62 30,213 0,155 9,197 38,179 16,-11 18,-315 2,-357 -21,-58 -35,-85 -42,-85 -5,0 -8,-6 -8,-13 0,-27 -127,-127 -161,-127 -11,0 -19,-5 -19,-11 0,-8 -36,-10 -125,-7 l -124,5 -27,-41 c -15,-23 -54,-65 -86,-95 -32,-30 -58,-59 -58,-66 0,-13 46,-58 70,-69 8,-3 33,-17 55,-31 22,-14 47,-28 55,-32 8,-4 17,-9 20,-12 3,-3 21,-15 40,-26 44,-25 152,-26 179,-1 10,9 23,16 29,16 7,0 12,5 12,10 0,6 9,10 20,10 11,0 20,5 20,10 0,6 7,10 15,10 8,0 15,4 15,9 0,5 8,11 18,14 18,6 65,33 212,120 52,32 101,57 107,57 7,0 13,4 13,10 0,5 11,12 25,16 14,3 25,10 25,14 0,5 10,12 22,16 12,3 32,17 45,30 51,51 53,68 53,436 0,198 -4,358 -10,378 -11,37 -60,100 -79,100 -6,0 -11,5 -11,10 0,6 -9,10 -19,10 -11,0 -21,3 -23,8 -14,32 -150,60 -213,43 z m 146,-36 c 80,-42 156,-97 168,-121 14,-32 17,-728 2,-765 -9,-25 -30,-45 -71,-68 -68,-39 -339,-196 -365,-212 -16,-11 -37,-22 -45,-26 -8,-4 -48,-26 -88,-50 -84,-49 -142,-57 -183,-25 -13,11 -75,47 -136,82 l -113,62 43,29 c 67,44 75,53 105,110 l 28,54 40,-13 c 63,-22 187,-11 256,22 70,34 140,107 176,184 26,54 27,66 29,227 2,138 -1,179 -15,219 -9,27 -22,51 -27,53 -6,2 -23,-21 -37,-51 -26,-52 -27,-62 -27,-205 0,-139 -2,-156 -24,-204 -43,-95 -136,-151 -244,-148 -86,2 -87,3 -32,116 27,55 78,161 113,235 168,353 209,437 229,459 52,57 147,72 218,36 z"
         id="path34740" /></g><g
       transform="matrix(0.02812892,0,0,-0.02812892,140.14003,156.62684)"
       fill="#000000"
       stroke="none"
       id="gscrolllogo"><path
         d="M 41,828 C -6,803 -11,730 32,690 49,675 67,670 111,670 h 57 l -2,-299 c -1,-290 0,-300 20,-328 12,-15 28,-29 38,-31 10,-2 6,7 -14,27 l -30,29 v 347 c 0,291 -2,351 -15,375 -9,17 -20,30 -26,30 -8,0 -7,-5 1,-15 11,-13 7,-15 -28,-15 -53,0 -72,-8 -72,-30 0,-15 9,-20 41,-22 37,-3 39,-4 26,-22 -7,-10 -26,-18 -41,-18 -54,0 -74,65 -32,107 l 24,24 311,1 312,1 29,-30 30,-29 V 476 180 H 499 c -138,0 -248,-4 -259,-10 -25,-13 -41,-65 -30,-94 10,-28 47,-56 73,-56 10,0 16,-4 13,-9 -9,-13 454,-14 489,-1 39,15 54,38 55,83 0,42 -24,73 -65,83 l -25,6 v 299 298 l -24,28 -24,28 -319,3 C 143,840 59,837 41,828 Z M 160,730 V 680 H 125 90 l 21,21 c 15,15 20,30 17,50 -4,23 -1,29 14,29 15,0 18,-8 18,-50 z M 313,156 c 26,-20 21,-25 -25,-28 -31,-2 -44,-8 -46,-20 -3,-15 4,-18 33,-18 33,0 35,-2 25,-20 -12,-22 -49,-27 -68,-8 -21,21 -14,65 14,87 31,24 42,25 67,7 z M 808,137 C 840,107 837,67 799,36 L 768,10 H 544 319 l 20,26 c 26,33 27,74 2,105 l -19,24 232,-3 c 218,-4 232,-5 254,-25 z M 348,97 C 353,71 323,30 298,30 h -22 l 23,21 c 16,15 21,29 18,46 -3,18 0,23 12,21 9,-2 17,-11 19,-21 z"
         id="path34756" /><path
         d="m 250,690 c 0,-20 4,-20 223,-18 189,3 222,5 222,18 0,13 -33,15 -222,18 -219,2 -223,2 -223,-18 z m 410,0 c -32,-10 -325,-10 -365,0 -17,4 63,8 180,8 119,0 199,-3 185,-8 z"
         id="path34758" /><path
         d="m 252,613 c 3,-16 21,-18 213,-19 116,0 216,2 223,4 6,2 12,10 12,18 0,12 -39,14 -226,14 -209,0 -225,-1 -222,-17 z m 326,0 c -60,-2 -156,-2 -215,0 -60,1 -11,3 107,3 118,0 167,-2 108,-3 z"
         id="path34766" /><path
         d="m 257,554 c -4,-4 -7,-13 -7,-21 0,-11 41,-13 223,-11 189,3 222,5 222,18 0,13 -32,15 -216,18 -118,1 -218,-1 -222,-4 z m 321,-21 c -60,-2 -156,-2 -215,0 -60,1 -11,3 107,3 118,0 167,-2 108,-3 z"
         id="path34768" /><path
         d="m 250,460 c 0,-20 4,-20 223,-18 189,3 222,5 222,18 0,13 -33,15 -222,18 -219,2 -223,2 -223,-18 z m 333,3 c -56,-2 -151,-2 -210,0 -59,1 -14,3 102,3 116,0 164,-2 108,-3 z"
         id="path34776" /><path
         d="m 250,385 c 0,-8 3,-15 8,-15 18,-1 418,-1 430,0 6,0 12,7 12,15 0,13 -32,15 -225,15 -193,0 -225,-2 -225,-15 z m 328,-2 c -60,-2 -156,-2 -215,0 -60,1 -11,3 107,3 118,0 167,-2 108,-3 z"
         id="path34778" /><path
         d="m 257,324 c -4,-4 -7,-13 -7,-21 0,-11 41,-13 223,-11 189,3 222,5 222,18 0,13 -32,15 -216,18 -118,1 -218,-1 -222,-4 z m 321,-21 c -60,-2 -156,-2 -215,0 -60,1 -11,3 107,3 118,0 167,-2 108,-3 z"
         id="path34780" /><path
         d="m 252,233 c 3,-17 21,-18 223,-18 189,0 220,2 220,15 0,13 -33,15 -223,18 -209,2 -223,1 -220,-15 z m 331,0 c -56,-2 -151,-2 -210,0 -59,1 -14,3 102,3 116,0 164,-2 108,-3 z"
         id="path34782" /></g><g
       transform="matrix(0.01982003,0,0,-0.01982003,124.77656,272.32057)"
       fill="#000000"
       stroke="none"
       id="gzkvlogo"><path
         d="m 530,734 c 0,-14 26,-15 230,-12 127,2 230,2 230,2 C 990,723 936,609 870,470 804,332 750,217 750,214 c 0,-2 63,-4 140,-4 116,0 140,2 140,15 0,12 -22,15 -118,17 l -119,3 73,155 c 41,85 93,195 116,244 24,50 45,93 46,98 2,4 -109,8 -247,8 -222,0 -251,-2 -251,-16 z"
         id="path34821" /><path
         d="m 1140,420 c 0,-287 2,-330 15,-330 13,0 15,43 15,330 0,287 -2,330 -15,330 -13,0 -15,-43 -15,-330 z"
         id="path34823" /><path
         d="m 1281,610 c 0,-81 5,-143 11,-146 5,-4 22,9 37,27 186,226 211,259 194,259 -11,0 -56,-48 -113,-120 -52,-66 -97,-120 -100,-120 -3,0 -4,54 -2,120 3,104 1,120 -13,120 -14,0 -15,-18 -14,-140 z"
         id="path34825" /><path
         d="m 1630,718 c -13,-18 -72,-93 -132,-166 L 1390,420 1526,255 c 75,-91 143,-165 150,-165 8,0 14,2 14,5 0,2 -58,74 -130,160 -71,86 -130,163 -130,170 0,8 5,17 10,20 6,4 65,74 131,156 87,108 115,149 101,149 -10,0 -29,-15 -42,-32 z"
         id="path34827" /><path
         d="M 2257,728 C 2249,715 2176,624 2094,524 2012,424 1932,326 1915,306 l -30,-37 -73,91 c -40,49 -80,90 -89,90 -18,0 -25,10 86,-125 40,-49 75,-91 76,-93 1,-1 56,64 122,145 66,82 161,199 212,261 70,85 87,112 73,112 -11,0 -26,-10 -35,-22 z"
         id="path34829" /><path
         d="M 2259,528 C 2159,405 2042,263 2001,213 c -73,-89 -78,-93 -117,-93 -40,0 -42,2 -139,120 -54,66 -104,120 -112,120 -20,0 -20,0 97,-142 l 105,-128 50,1 h 50 l 250,305 c 303,370 291,354 272,354 -8,0 -97,-100 -198,-222 z"
         id="path34831" /><path
         d="m 534,631 c -16,-16 11,-21 121,-21 69,0 125,-2 125,-4 C 780,603 726,490 660,355 594,219 540,104 540,99 c 0,-5 109,-9 245,-9 211,0 245,2 245,15 0,13 -32,15 -225,15 -124,0 -225,1 -225,3 0,1 28,59 61,127 88,179 179,372 179,379 0,7 -279,9 -286,2 z"
         id="path34833" /><path
         d="m 1281,230 c -1,-122 0,-140 14,-140 14,0 16,16 13,120 -2,66 0,119 3,118 3,-2 50,-56 103,-120 54,-65 104,-118 112,-118 9,0 14,4 12,8 -11,28 -226,271 -240,271 -14,1 -16,-15 -17,-139 z"
         id="path34835" /></g><g
       transform="matrix(0.01625278,0,0,-0.01625278,254.08408,111.98686)"
       fill="#000000"
       stroke="none"
       id="gdflogo"><path
         d="m 1484,1936 c -53,-24 -60,-79 -14,-123 47,-44 37,-73 -27,-73 -19,0 -49,-23 -115,-89 l -88,-89 v -130 -130 l 52,-53 53,-54 91,-3 c 73,-3 97,0 118,13 23,15 27,15 48,1 23,-16 111,-22 143,-10 16,6 45,54 45,73 0,6 -16,28 -35,50 l -35,38 v 270 270 l -26,24 c -22,20 -37,24 -102,27 -50,1 -88,-3 -108,-12 z m 196,-331 v -305 h 35 c 33,0 35,-2 35,-35 v -35 h -70 -70 v 35 c 0,32 -2,35 -30,35 -28,0 -30,-3 -30,-35 v -35 h -105 -105 v 35 c 0,33 -2,35 -35,35 h -35 v 135 135 h 35 c 34,0 35,2 35,36 0,36 0,36 35,30 l 35,-7 v 38 38 l 67,-3 68,-3 v 70 71 h -32 c -31,0 -33,2 -33,35 v 35 h 100 100 z"
         id="path34860" /><path
         d="m 1480,1606 c 0,-34 -2,-36 -35,-36 h -35 v -135 -135 h 65 65 l 2,155 c 0,85 1,161 2,168 1,7 -13,13 -31,15 -32,3 -33,2 -33,-32 z m 18,-163 c -3,-90 -5,-98 -23,-98 -18,0 -20,8 -23,81 -2,65 1,85 13,98 31,30 36,18 33,-81 z"
         id="path34862" /><path
         d="m 2099,1942 c -9,-4 -39,-29 -67,-57 l -52,-50 v -70 c 0,-68 -1,-72 -35,-104 -23,-22 -35,-42 -35,-60 0,-18 12,-39 35,-61 34,-33 35,-37 35,-107 0,-69 -1,-74 -35,-107 -42,-42 -45,-77 -10,-111 23,-24 30,-25 150,-25 120,0 127,1 150,25 35,34 32,69 -10,111 -33,33 -35,38 -35,106 0,67 2,73 35,109 19,22 35,48 35,59 0,11 -16,37 -35,59 -36,40 -46,81 -20,81 8,0 32,-18 54,-40 45,-45 67,-49 105,-19 23,18 26,27 26,87 v 67 l -55,54 -55,55 -83,3 c -45,1 -89,-1 -98,-5 z m 191,-67 c 0,-33 2,-35 35,-35 h 35 v -70 -70 h -35 c -33,0 -35,2 -35,35 0,33 -2,35 -35,35 -33,0 -35,2 -35,35 0,33 -2,35 -35,35 h -35 v -105 -106 l 35,7 35,6 v -39 c 0,-39 0,-39 -35,-35 l -35,4 v -136 -136 h 35 c 33,0 35,-2 35,-35 v -35 h -135 -135 v 35 c 0,33 2,35 35,35 h 35 v 136 136 l -35,-4 c -35,-4 -35,-4 -35,35 v 39 l 35,-6 35,-7 v 106 105 h 34 c 34,0 35,1 29,35 l -6,35 h 107 106 z"
         id="path34864" /><path
         d="m 590,1850 c -22,-5 -25,-11 -25,-50 0,-38 3,-45 20,-48 11,-1 26,-16 33,-32 7,-16 22,-32 33,-35 11,-4 17,-11 14,-16 -4,-5 1,-9 9,-9 8,0 18,-9 21,-20 3,-11 12,-20 18,-20 14,0 40,-27 58,-62 6,-13 17,-26 23,-30 7,-5 4,-8 -6,-8 -10,0 -18,-7 -18,-15 0,-9 -7,-18 -15,-21 -8,-4 -15,-12 -15,-20 0,-8 -9,-14 -20,-14 -13,0 -22,-9 -26,-25 -3,-14 -12,-25 -19,-25 -16,0 -76,-60 -70,-70 2,-4 -7,-12 -21,-19 -22,-10 -25,-16 -22,-54 l 3,-42 60,-3 c 71,-4 105,3 105,23 0,7 9,17 20,20 11,4 18,11 15,16 -4,5 1,9 9,9 9,0 16,6 16,14 0,8 7,16 15,20 8,3 15,12 15,21 0,8 9,15 20,15 15,0 22,9 26,30 4,16 10,27 15,24 10,-6 49,18 49,31 0,11 49,55 62,55 4,0 8,20 8,45 0,25 -4,45 -8,45 -14,0 -132,116 -132,129 0,6 -4,11 -10,11 -5,0 -39,30 -75,67 -62,63 -69,67 -113,68 -26,1 -58,-1 -72,-5 z m 120,-45 c 0,-33 2,-35 35,-35 33,0 35,-2 35,-35 0,-33 2,-35 35,-35 33,0 35,-2 35,-33 0,-32 1,-33 36,-29 l 36,4 -4,-36 c -4,-35 -3,-36 28,-36 29,0 32,-3 36,-35 4,-34 3,-35 -33,-35 -37,0 -38,0 -32,-35 6,-35 5,-35 -31,-35 -35,0 -36,-1 -36,-36 0,-35 -1,-36 -35,-32 -34,4 -35,3 -35,-32 0,-35 -1,-36 -35,-32 -34,4 -35,3 -35,-32 v -36 h -68 -68 l 4,35 c 4,32 7,35 37,35 33,0 34,1 28,36 l -6,37 36,-5 c 36,-4 37,-3 37,29 0,31 2,33 35,33 33,0 35,2 35,35 0,33 2,35 35,35 33,0 35,2 35,35 0,33 -2,35 -35,35 -33,0 -35,2 -35,33 0,32 -1,33 -35,29 -34,-4 -35,-3 -35,32 0,35 -1,36 -36,36 -36,0 -37,0 -31,35 6,35 5,35 -32,35 -36,0 -37,1 -33,35 l 4,35 h 64 64 z"
         id="path34866" /></g><g
       style="fill:#000000"
       id="ggnosislogo"
       transform="matrix(0.4214633,0,0,0.4214633,251.95343,99.532903)"><path
         d="m 3.62133,9.66556 c 0,-0.6656 0.21909,-1.27086 0.59784,-1.7508 L 8.22853,11.9223 C 7.74024,12.301 7.13406,12.5201 6.47681,12.5201 4.89312,12.5192 3.61298,11.24 3.62133,9.66556 Z M 15.5473,12.5108 c 1.5754,0.0084 2.8555,-1.2718 2.8555,-2.85453 0,-0.65631 -0.2191,-1.2625 -0.5978,-1.75079 L 13.7956,11.913 c 0.4799,0.3787 1.0861,0.5978 1.7517,0.5978 z m 3.0996,-5.43059 c 0.5895,0.70738 0.9432,1.59948 0.9432,2.59277 0,2.23072 -1.8111,4.04092 -4.0428,4.04092 -0.9849,0 -1.8863,-0.3537 -2.5937,-0.9431 l -1.9457,1.9448 -1.94574,-1.9448 c -0.70738,0.5894 -1.60041,0.9431 -2.5937,0.9431 -2.23166,0 -4.04279,-1.8102 -4.04279,-4.04092 0,-0.98493 0.35369,-1.88632 0.94316,-2.59277 L 2.45909,6.1714 1.59205,5.30436 C 0.581122,6.97067 0,8.91548 0,11.0042 0,17.0827 4.92654,22 10.9995,22 17.0716,22 21.9991,17.0744 21.9991,11.0042 22.0158,8.90806 21.4347,6.96325 20.4237,5.30436 Z M 10.9995,13.0325 2.27343,4.31014 C 2.51757,3.99823 2.77843,3.6956 3.04857,3.40968 5.05279,1.31356 7.87485,0 11.0079,0 c 3.133,0 5.9625,1.31356 7.9593,3.40968 0.2776,0.27756 0.5394,0.58948 0.7584,0.8921 z M 4.24423,4.23495 11.007,10.9958 17.7697,4.23495 c -1.7935,-1.81021 -4.1858,-2.8035 -6.7627,-2.8035 -2.57702,0 -4.95999,0.99329 -6.76277,2.8035 z M 24.4368,11.0079 v 0.0251 c 0,6.0562 4.9136,10.9651 10.9745,10.9651 h 4.6378 v -2.8443 h -4.5636 c -4.5542,0 -8.235,-3.7374 -8.1375,-8.3102 0.0956,-4.44569 3.8358,-7.95377 8.287,-7.95377 h 4.4141 V 0.0733364 h -4.6685 c -6.0432,0 -10.9438,4.8959036 -10.9438,10.9345636 z M 82.7597,0.0733364 H 94.5446 V 21.9991 H 82.7597 Z M 84.8456,6.67826 c 0,2.10262 1.7044,3.80704 3.807,3.80704 2.1026,0 3.807,-1.70442 3.807,-3.80704 0,-2.10262 -1.7044,-3.807 -3.807,-3.807 -2.1026,0 -3.807,1.70438 -3.807,3.807 z M 56.0355,7.42369 c 0,0.60618 -0.2144,1.11768 -0.6424,1.53449 -0.4288,0.41774 -0.9357,0.62661 -1.5205,0.62661 h -6.5205 c -0.6062,0 -1.1186,-0.20794 -1.5363,-0.62661 C 45.3971,8.54044 45.1892,8.02895 45.1892,7.42369 V 0.0733364 H 42.368 V 21.9991 h 2.8212 V 14.503 c 0,-0.6053 0.2088,-1.1168 0.6266,-1.5345 0.4177,-0.4178 0.9301,-0.6266 1.5363,-0.6266 h 6.5205 c 0.5848,0 1.0917,0.2088 1.5205,0.6266 0.428,0.4177 0.6424,0.9292 0.6424,1.5345 v 7.4961 H 58.826 V 0.0733364 H 56.0355 Z M 107.092,0.0733364 H 96.8626 V 21.9991 h 2.8211 V 10.2782 c 0,-4.07988 3.3103,-7.38745 7.3933,-7.38745 4.083,0 7.393,3.30757 7.393,7.38745 v 11.7209 h 2.797 V 10.2411 C 117.268,4.62576 112.712,0.0733364 107.092,0.0733364 Z M 72.4323,1.23929 81.7358,21.9991 H 59.8732 L 69.2695,1.23929 C 69.6418,0.413098 70.169,0 70.8504,0 71.5327,0 72.06,0.413098 72.4323,1.23929 Z m -1.5819,9.54491 c -2.1026,0 -3.807,1.7043 -3.807,3.807 0,2.1026 1.7044,3.807 3.807,3.807 2.1026,0 3.807,-1.7044 3.807,-3.807 0,-2.1027 -1.7044,-3.807 -3.807,-3.807 z"
         fill="#133629"
         id="path34897"
         style="fill:#000000" /></g><text
       xml:space="preserve"
       style="font-size:10.8919px;fill:#000000;stroke:#000000;stroke-width:0.980861;stroke-dasharray:none;stroke-dashoffset:0;stroke-opacity:1"
       x="10.518375"
       y="106.38512"
       id="text34910"><tspan
         id="tspan34908"
         style="stroke-width:0.980864"
         x="10.518375"
         y="106.38512">Total Power Level</tspan></text><text
       xml:space="preserve"
       style="font-size:10.8919px;fill:#000000;stroke:#000000;stroke-width:0.980861;stroke-dasharray:none;stroke-dashoffset:0;stroke-opacity:1"
       x="266.28421"
       y="72.843712"
       id="textpower1000"><tspan
         id="tspan34908-6"
         style="stroke-width:0.980864"
         x="266.28421"
         y="72.843712">1000</tspan></text><text
       xml:space="preserve"
       style="font-size:10.8919px;fill:#000000;stroke:#000000;stroke-width:0.980861;stroke-dasharray:none;stroke-dashoffset:0;stroke-opacity:1"
       x="41.973118"
       y="123.82022"
       id="textpower100"><tspan
         id="tspan34908-6-3"
         style="stroke-width:0.980864"
         x="41.973118"
         y="123.82022">100</tspan></text><text
       xml:space="preserve"
       style="font-size:10.8919px;fill:#000000;stroke:#000000;stroke-width:0.980861;stroke-dasharray:none;stroke-dashoffset:0;stroke-opacity:1"
       x="41.918922"
       y="123.44604"
       id="textpower300"><tspan
         id="tspan34908-6-3-7"
         style="stroke-width:0.980864"
         x="41.918922"
         y="123.44604">300</tspan></text><text
       xml:space="preserve"
       style="font-size:10.8919px;fill:#000000;stroke:#000000;stroke-width:0.980861;stroke-dasharray:none;stroke-dashoffset:0;stroke-opacity:1"
       x="41.874706"
       y="123.64622"
       id="textpower400"><tspan
         id="tspan34908-6-3-7-4"
         style="stroke-width:0.980864"
         x="41.874706"
         y="123.64622">400</tspan></text><text
       xml:space="preserve"
       style="font-size:10.8919px;fill:#000000;stroke:#000000;stroke-width:0.980861;stroke-dasharray:none;stroke-dashoffset:0;stroke-opacity:1"
       x="42.409649"
       y="124.30708"
       id="textpower900"><tspan
         id="tspan34908-6-3-7-4-5"
         style="stroke-width:0.980864"
         x="42.409649"
         y="124.30708">900</tspan></text><text
       xml:space="preserve"
       style="font-size:10.8919px;fill:#000000;stroke:#000000;stroke-width:0.980861;stroke-dasharray:none;stroke-dashoffset:0;stroke-opacity:1"
       x="40.753239"
       y="123.54413"
       id="textpower1100"><tspan
         id="tspan34908-6-3-7-4-5-3"
         style="stroke-width:0.980864"
         x="40.753239"
         y="123.54413">1100</tspan></text><path
       style="fill:none;stroke:#000000;stroke-width:0.413;stroke-dasharray:4.956, 4.956;stroke-dashoffset:0;stroke-opacity:1"
       d="m 135.60341,77.164869 c -0.37421,3.492559 -0.74839,6.984878 0.18725,9.354653 0.93564,2.369775 3.18065,3.616998 5.42541,4.864081"
       id="path39694" /><path
       style="fill:none;stroke:#000000;stroke-width:0.413;stroke-dasharray:4.956, 4.956;stroke-dashoffset:0;stroke-opacity:1"
       d="m 174.89202,73.048919 c 0.12473,4.116223 0.24945,8.232174 -0.74835,11.038361 -0.9978,2.806187 -3.11811,4.302879 -5.23848,5.799613"
       id="path39698" /><path
       style="fill:none;stroke:#000000;stroke-width:0.412999;stroke-dasharray:4.95599, 4.95599;stroke-dashoffset:0;stroke-opacity:1"
       d="m 153.47035,116.77982 c -0.0882,4.67456 -0.17639,9.34888 -0.26458,14.02292"
       id="path39702" /><path
       style="fill:none;stroke:#000000;stroke-width:0.412999;stroke-dasharray:4.95599, 4.95599;stroke-dashoffset:0;stroke-opacity:1"
       d="m 192.10417,143.76843 c -8.23163,-0.12472 -16.46354,-0.24945 -24.6957,-0.37418"
       id="path40432" /><path
       style="fill:none;stroke:#000000;stroke-width:0.412999;stroke-dasharray:4.95599, 4.95599;stroke-dashoffset:0;stroke-opacity:1"
       d="m 152.81554,159.85806 c -0.49892,7.23434 -0.99782,14.46844 -1.49671,21.70228"
       id="path42614" /><path
       style="fill:none;stroke:#000000;stroke-width:0.412999;stroke-dasharray:4.95599, 4.95599;stroke-dashoffset:0;stroke-opacity:1"
       d="m 191.35582,204.01098 c -8.60581,-0.12472 -17.21188,-0.24945 -25.81825,-0.37418"
       id="path42622" /><g
       transform="matrix(0.10498913,0,0,-0.10498913,339.0865,82.811699)"
       fill="#000000"
       stroke="none"
       id="gcartridgelogo"><path
         d="m 198,289 c -27,-10 -28,-14 -28,-75 0,-59 2,-64 24,-70 14,-3 30,-3 36,1 16,10 0,27 -21,22 -17,-5 -19,1 -19,54 v 59 h 90 90 v -55 c 0,-47 -3,-55 -19,-55 -10,0 -21,-7 -25,-15 -3,-10 -19,-15 -45,-15 -22,0 -43,-4 -46,-10 -4,-6 13,-10 45,-10 32,0 49,4 45,10 -4,6 6,10 23,10 35,0 42,13 42,80 0,32 -5,52 -16,61 -21,17 -139,22 -176,8 z"
         id="path56133" /><path
         d="m 230,240 c 0,-5 20,-10 45,-10 25,0 45,5 45,10 0,6 -20,10 -45,10 -25,0 -45,-4 -45,-10 z"
         id="path56135" /></g><g
       style="fill:#000000"
       id="gzkvsecure"
       transform="matrix(0.06749697,0,0,0.06749697,144.69601,230.75291)"><path
         d="M 214.419,32.12 C 214.007,29.161 211.878,26.727 209,25.927 L 116.76,0.275 c -1.315,-0.366 -2.704,-0.366 -4.02,0 L 20.5,25.927 c -2.878,0.8 -5.007,3.233 -5.419,6.193 -0.535,3.847 -12.74,94.743 18.565,139.961 31.268,45.164 77.395,56.738 79.343,57.209 0.579,0.14 1.169,0.209 1.761,0.209 0.592,0 1.182,-0.07 1.761,-0.209 1.949,-0.471 48.076,-12.045 79.343,-57.209 31.305,-45.217 19.1,-136.113 18.565,-139.961 z m -40.186,53.066 -62.917,62.917 c -1.464,1.464 -3.384,2.197 -5.303,2.197 -1.919,0 -3.839,-0.732 -5.303,-2.197 L 61.809,109.202 c -1.407,-1.406 -2.197,-3.314 -2.197,-5.303 0,-1.989 0.791,-3.897 2.197,-5.303 l 7.724,-7.724 c 2.929,-2.928 7.678,-2.929 10.606,0 l 25.874,25.874 49.89,-49.891 c 1.406,-1.407 3.314,-2.197 5.303,-2.197 1.989,0 3.897,0.79 5.303,2.197 l 7.724,7.724 c 2.929,2.929 2.929,7.678 0,10.607 z"
         id="path69942" /></g><rect
       style="fill:none;stroke:#000000;stroke-width:0.373981;stroke-dasharray:2.99186, 0.373981;stroke-dashoffset:0;stroke-opacity:1"
       id="rect71819"
       width="305.82483"
       height="241.23721"
       x="110.57632"
       y="39.667992" /><path
       style="fill:none;stroke:#000000;stroke-width:0.412999;stroke-dasharray:4.95599, 4.95599;stroke-dashoffset:0;stroke-opacity:1"
       d="m 368.56168,86.572159 c -0.17638,-4.938621 -0.35277,-9.877511 -0.52917,-14.81667"
       id="path71835" /><path
       style="fill:none;stroke:#000000;stroke-width:0.412999;stroke-dasharray:4.95599, 4.95599;stroke-dashoffset:0;stroke-opacity:1"
       d="m 309.03333,197.11458 c -0.0882,5.02734 -0.17639,10.05443 -0.26458,15.08125"
       id="path71855" /><path
       style="fill:none;stroke:#000000;stroke-width:0.412999;stroke-dasharray:4.95599, 4.95599;stroke-dashoffset:0;stroke-opacity:1"
       d="m 262.99583,238.91875 c 2.55784,3.96906 5.11547,7.9378 7.67292,11.90625"
       id="path71859" /><path
       style="fill:none;stroke:#000000;stroke-width:0.412999;stroke-dasharray:4.95599, 4.95599;stroke-dashoffset:0;stroke-opacity:1"
       d="m 302.41875,238.125 c -3.35143,4.85076 -6.70282,9.70144 -10.05417,14.55208"
       id="path71863" /><path
       style="fill:none;stroke:#000000;stroke-width:0.412999;stroke-dasharray:4.95599, 4.95599;stroke-dashoffset:0;stroke-opacity:1"
       d="m 353.59758,148.17422 c -18.70861,-0.12472 -37.41746,-0.24944 -56.12659,-0.37417"
       id="path71871" /><path
       style="fill:none;stroke:#000000;stroke-width:0.412999;stroke-dasharray:4.95599, 4.95599;stroke-dashoffset:0;stroke-opacity:1"
       d="m 220.01627,194.57221 c 14.59292,-13.59512 29.18584,-27.19023 43.77875,-40.78533"
       id="path71875" /><path
       style="fill:none;stroke:#000000;stroke-width:0.412999;stroke-dasharray:4.95599, 4.95599;stroke-dashoffset:0;stroke-opacity:1"
       d="m 264.1692,208.0426 c 3.99117,-14.59273 7.9824,-29.18566 11.97367,-43.77875"
       id="path71879" /><path
       style="fill:none;stroke:#000000;stroke-width:0.412999;stroke-dasharray:4.95599, 4.95599;stroke-dashoffset:0;stroke-opacity:1"
       d="m 279.88463,134.70384 c 0.12473,-7.73273 0.24946,-15.46573 0.3742,-23.19899"
       id="path71887" /><path
       style="fill:none;stroke:#000000;stroke-width:0.412999;stroke-dasharray:4.95599, 4.95599;stroke-dashoffset:0;stroke-opacity:1"
       d="m 345.36567,117.49168 c -17.83564,6.98459 -35.67143,13.96924 -53.50734,20.95393"
       id="path71891" /></g></svg>
