<svg xmlns="http://www.w3.org/2000/svg" width="98" height="26" fill="none"><path fill="#fff" d="M13.346 8.698c-.17.575-.817.859-1.38.63-.51-.206-.764-.758-.64-1.283.08-.334.137-.651.172-.953.07-.575.069-1.086-.002-1.533-.07-.447-.21-.818-.418-1.111a1.712 1.712 0 0 0-.79-.648c-.578-.234-1.217-.142-1.917.278-.697.412-1.415 1.142-2.154 2.19-.736 1.04-1.454 2.387-2.152 4.037-.71 1.68-1.182 3.146-1.416 4.399-.228 1.247-.244 2.253-.049 3.019.202.76.59 1.256 1.164 1.49.318.128.652.163 1.001.104.356-.065.717-.224 1.084-.477.37-.252.736-.597 1.1-1.036.19-.226.377-.478.557-.754.299-.455.883-.666 1.391-.453.56.234.806.883.505 1.401a16.48 16.48 0 0 1-1.188 1.776c-.626.818-1.28 1.498-1.964 2.042-.68.536-1.364.895-2.049 1.077a3.08 3.08 0 0 1-1.973-.122C1.294 22.392.65 21.607.293 20.416c-.355-1.19-.388-2.715-.096-4.572.29-1.858.935-3.966 1.932-6.324 1-2.365 2.069-4.301 3.205-5.808C6.473 2.198 7.598 1.143 8.709.548c1.111-.596 2.13-.706 3.058-.33.591.24 1.069.635 1.432 1.184.364.55.604 1.237.72 2.063.12.82.106 1.76-.043 2.82a16.27 16.27 0 0 1-.53 2.413Z"/><path fill="#fff" d="M9.724 12.271a1.182 1.182 0 0 1 1.534-.622l.057.024c.599.242.883.915.635 1.501a1.182 1.182 0 0 1-1.533.622l-.057-.023a1.14 1.14 0 0 1-.636-1.502ZM31.952 19.872c-.368.224-.792.44-1.272.648a7.644 7.644 0 0 1-1.584.48c-.576.128-1.2.192-1.872.192-1.296 0-2.472-.224-3.528-.672a8.381 8.381 0 0 1-2.712-1.872 8.79 8.79 0 0 1-1.752-2.736c-.4-1.04-.6-2.144-.6-3.312 0-1.248.216-2.408.648-3.48a8.512 8.512 0 0 1 4.56-4.68c1.04-.448 2.168-.672 3.384-.672.896 0 1.736.12 2.52.36s1.496.552 2.136.936l-.504 1.08a9.014 9.014 0 0 0-1.896-.888 6.87 6.87 0 0 0-2.232-.36c-1.008 0-1.96.2-2.856.6a7.33 7.33 0 0 0-2.376 1.632 7.575 7.575 0 0 0-1.584 2.424 7.768 7.768 0 0 0-.576 3c0 1.024.168 1.992.504 2.904a7.394 7.394 0 0 0 1.488 2.4 7.212 7.212 0 0 0 2.352 1.632c.912.384 1.928.576 3.048.576.832 0 1.592-.112 2.28-.336a8.45 8.45 0 0 0 1.872-.888l.552 1.032ZM39.618 21.192c-.896 0-1.712-.2-2.448-.6a4.71 4.71 0 0 1-1.728-1.728c-.416-.736-.624-1.592-.624-2.568 0-1.04.224-1.928.672-2.664a4.353 4.353 0 0 1 1.824-1.704c.768-.4 1.64-.6 2.616-.6.832 0 1.616.248 2.352.744.752.496 1.288 1.12 1.608 1.872l-.168.336.144-2.664h1.008V21h-1.128v-2.904l.24.432c-.112.32-.304.64-.576.96a5.471 5.471 0 0 1-1.008.864 5.402 5.402 0 0 1-1.296.624c-.464.144-.96.216-1.488.216Zm.24-.96c.704 0 1.336-.144 1.896-.432a3.742 3.742 0 0 0 1.392-1.248c.352-.528.552-1.136.6-1.824v-1.344a3.663 3.663 0 0 0-.768-1.584 4.011 4.011 0 0 0-1.368-1.104 3.915 3.915 0 0 0-1.776-.408 3.87 3.87 0 0 0-1.944.504 3.634 3.634 0 0 0-1.416 1.368c-.352.592-.528 1.288-.528 2.088 0 .736.176 1.408.528 2.016a4.204 4.204 0 0 0 1.416 1.44 3.861 3.861 0 0 0 1.968.528ZM54.32 21.192a4.865 4.865 0 0 1-2.52-.696c-.784-.48-1.36-1.096-1.728-1.848l.192-.408v7.272h-1.128V11.544h1.008l.12 3.072-.216-.696c.416-.752 1.024-1.368 1.824-1.848a4.87 4.87 0 0 1 2.616-.744c.896 0 1.704.216 2.424.648a4.662 4.662 0 0 1 1.704 1.776c.432.736.648 1.584.648 2.544 0 .944-.224 1.792-.672 2.544a4.608 4.608 0 0 1-1.776 1.728c-.736.416-1.568.624-2.496.624Zm-.192-.936c.736 0 1.4-.176 1.992-.528a3.943 3.943 0 0 0 1.44-1.416c.368-.608.552-1.28.552-2.016 0-.752-.176-1.424-.528-2.016a3.943 3.943 0 0 0-1.416-1.44c-.576-.352-1.232-.528-1.968-.528a3.886 3.886 0 0 0-3.312 1.776 4.035 4.035 0 0 0-.624 1.848v.768c.048.656.248 1.256.6 1.8.368.544.832.976 1.392 1.296a3.95 3.95 0 0 0 1.872.456ZM64.82 21.192a5.518 5.518 0 0 1-1.703-.288 3.184 3.184 0 0 1-1.44-.984l.528-.744c.32.336.696.608 1.128.816.448.192.92.288 1.416.288.368 0 .712-.048 1.032-.144a1.73 1.73 0 0 0 .816-.552c.208-.256.312-.6.312-1.032 0-.448-.128-.792-.384-1.032a2.584 2.584 0 0 0-.936-.576c-.368-.16-.76-.304-1.176-.432-.688-.224-1.256-.528-1.704-.912-.432-.384-.648-.928-.648-1.632 0-.512.12-.96.36-1.344.256-.384.6-.68 1.032-.888.432-.224.92-.336 1.464-.336.496 0 .984.08 1.464.24.496.16.944.432 1.344.816l-.504.792a1.909 1.909 0 0 0-1.032-.72 4.6 4.6 0 0 0-1.104-.216c-.272 0-.56.056-.864.168-.288.112-.536.28-.744.504-.192.208-.288.488-.288.84 0 .368.104.672.312.912.208.224.472.408.792.552.336.144.68.28 1.032.408.464.144.896.32 1.296.528.416.192.752.456 1.008.792.272.32.408.752.408 1.296a3.1 3.1 0 0 1-.36 1.488c-.24.432-.6.776-1.08 1.032-.464.24-1.056.36-1.776.36ZM74.4 21.264c-.88 0-1.584-.256-2.112-.768-.528-.528-.807-1.208-.84-2.04v-6.84h1.129v6.504c.032.608.224 1.112.576 1.512.367.4.911.616 1.631.648a3.23 3.23 0 0 0 1.704-.48c.528-.32.953-.752 1.272-1.296.337-.56.504-1.192.504-1.896v-4.992h1.129V21h-1.008l-.12-2.952.168.648c-.16.48-.449.92-.865 1.32-.4.384-.88.688-1.44.912a4.494 4.494 0 0 1-1.728.336ZM83.66 2.76h1.127V21H83.66V2.76ZM93.13 21.192c-.976 0-1.84-.216-2.592-.648a4.785 4.785 0 0 1-1.776-1.752c-.416-.752-.624-1.592-.624-2.52 0-.912.224-1.744.672-2.496a5.105 5.105 0 0 1 1.8-1.8 4.957 4.957 0 0 1 2.544-.672c1.12 0 2.056.328 2.808.984.768.656 1.32 1.512 1.656 2.568l-8.208 3.168-.336-.816 7.512-2.928-.24.336a4.33 4.33 0 0 0-1.248-1.656c-.544-.464-1.216-.696-2.016-.696-.72 0-1.368.176-1.944.528a4.068 4.068 0 0 0-1.392 1.416c-.336.592-.504 1.264-.504 2.016 0 .704.16 1.36.48 1.968.336.608.8 1.096 1.392 1.464.592.368 1.272.552 2.04.552.512 0 1-.096 1.464-.288a4.75 4.75 0 0 0 1.272-.744l.576.816c-.448.352-.968.64-1.56.864a4.86 4.86 0 0 1-1.776.336Z"/></svg>