<?xml version="1.0" encoding="utf-8"?>
<!-- Generator: Adobe Illustrator 26.1.0, SVG Export Plug-In . SVG Version: 6.00 Build 0)  -->
<svg version="1.1" id="Layer_1" xmlns="http://www.w3.org/2000/svg" xmlns:xlink="http://www.w3.org/1999/xlink" x="0px" y="0px"
	 viewBox="0 0 900 260.3" style="enable-background:new 0 0 900 260.3;" xml:space="preserve">
<style type="text/css">
	.st0{fill:url(#SVGID_1_);}
	.st1{fill:#231F20;}
	.st2{fill:url(#SVGID_00000109721809464090918320000000731422999510254723_);}
	.st3{fill:#FFFFFF;}
	.st4{fill:url(#SVGID_00000027603714625680719370000008613764622778355329_);}
	.st5{fill:url(#SVGID_00000106129666422926665010000003433980535072768700_);}
</style>
<linearGradient id="SVGID_1_" gradientUnits="userSpaceOnUse" x1="22.9015" y1="130.1475" x2="877.0985" y2="130.1475">
	<stop  offset="0" style="stop-color:#62BDC1"/>
	<stop  offset="1" style="stop-color:#6694EC"/>
</linearGradient>
<path class="st0" d="M322.31,93.66c-0.42-0.33-0.8-0.71-1.24-1.02c-4.55-3.25-10.16-4.87-16.83-4.87c-6.72,0-12.56,1.6-17.54,4.81
	c-4.98,3.21-8.85,7.59-11.6,13.16c-2.75,5.57-4.13,11.92-4.13,19.07c0,7.02,1.35,13.32,4.06,18.91c2.71,5.59,6.49,10.01,11.34,13.26
	c4.85,3.25,10.5,4.87,16.96,4.87c6.63,0,12.21-1.49,16.76-4.42v7.02c0.09,2.6-0.57,4.78-1.98,6.53c-1.41,1.75-3.28,3.08-5.62,3.96
	c-2.34,0.89-4.83,1.33-7.47,1.33c-2.47,0-4.76-0.54-6.86-1.62c-2.1-1.08-3.72-2.66-4.84-4.74l-16.38,7.93
	c1.78,3.03,4.08,5.69,6.92,7.96c2.84,2.27,6.05,4.05,9.65,5.33c3.6,1.28,7.39,1.92,11.37,1.92c5.15,0,9.94-0.68,14.36-2.05
	c4.42-1.36,8.16-3.43,11.21-6.21c3.05-2.77,5.14-6.3,6.27-10.59c0.39-1.52,0.66-3.04,0.81-4.58c0.15-1.54,0.23-3.17,0.23-4.91V89.71
	h-15.46V93.66z M315.65,143.45c-2.36,1.78-5.51,2.66-9.46,2.66c-3.81,0-6.93-0.95-9.36-2.86c-2.43-1.91-4.22-4.47-5.39-7.7
	c-1.17-3.23-1.75-6.81-1.75-10.75c0-3.9,0.61-7.46,1.82-10.69c1.21-3.23,3.09-5.8,5.62-7.73c2.53-1.93,5.77-2.89,9.71-2.89
	c3.68,0,6.66,0.89,8.93,2.66c2.27,1.78,3.93,4.27,4.97,7.47c1.04,3.21,1.56,6.93,1.56,11.18c0,4.25-0.52,7.97-1.56,11.18
	C319.71,139.18,318.01,141.67,315.65,143.45z M403.73,92.96c-5.15-3.47-11.41-5.2-18.78-5.2c-6.93,0-13.06,1.57-18.39,4.71
	c-5.33,3.14-9.51,7.55-12.54,13.22c-3.03,5.68-4.55,12.35-4.55,20.01c0,7.02,1.55,13.25,4.65,18.68c3.1,5.44,7.39,9.7,12.86,12.8
	c5.48,3.1,11.82,4.65,19.01,4.65c6.76,0,12.98-1.78,18.68-5.33c5.7-3.55,9.87-8.53,12.51-14.95l-17.67-5.07
	c-1.3,2.86-3.18,5.05-5.65,6.56c-2.47,1.52-5.44,2.27-8.9,2.27c-5.5,0-9.67-1.79-12.51-5.36c-2.08-2.61-3.38-6.03-3.94-10.23h31.78
	h8.97h8.51c0.74-8.49-0.13-15.88-2.6-22.16C412.7,101.3,408.89,96.42,403.73,92.96z M385.73,103.09c5.15,0,8.87,1.57,11.14,4.71
	c1.5,2.06,2.49,5.01,3,8.81h-30.9c0.69-3.24,1.84-5.93,3.46-8.03C375.28,104.92,379.71,103.09,385.73,103.09z M479.98,92.5
	c-5.35-3.16-11.55-4.74-18.62-4.74c-6.93,0-13.06,1.56-18.39,4.68c-5.33,3.12-9.51,7.46-12.54,13.03
	c-3.03,5.57-4.55,12.01-4.55,19.33c0,7.24,1.48,13.64,4.45,19.2c2.97,5.57,7.11,9.93,12.44,13.09c5.33,3.16,11.52,4.74,18.59,4.74
	c7.02,0,13.2-1.57,18.55-4.71c5.35-3.14,9.53-7.49,12.54-13.06c3.01-5.57,4.52-11.99,4.52-19.27c0-7.23-1.5-13.63-4.48-19.2
	C489.5,100.03,485.34,95.66,479.98,92.5z M474.07,139.58c-2.79,3.83-7.03,5.75-12.7,5.75c-5.5,0-9.67-1.85-12.51-5.56
	c-2.84-3.7-4.26-8.7-4.26-14.98c0-4.07,0.6-7.65,1.79-10.72c1.19-3.08,3.02-5.48,5.49-7.21c2.47-1.73,5.63-2.6,9.49-2.6
	c5.59,0,9.8,1.86,12.64,5.59c2.84,3.73,4.26,8.71,4.26,14.95C478.26,130.82,476.87,135.75,474.07,139.58z M586.52,88.02
	c-4.68,0-8.94,1.03-12.77,3.09c-3.58,1.92-6.45,4.58-8.67,7.91c-1.66-3.03-3.93-5.54-6.86-7.49c-3.53-2.34-8.05-3.51-13.55-3.51
	c-4.81,0-9.15,1.06-13.03,3.18c-2.97,1.63-5.47,3.7-7.51,6.22v-7.71h-15.59v70.18h17.8v-42.5c0-4.03,1.11-7.31,3.35-9.84
	c2.23-2.53,5.19-3.8,8.87-3.8c3.86,0,6.88,1.29,9.07,3.87c2.19,2.58,3.28,6.18,3.28,10.82v41.46h17.67v-42.5
	c0-2.69,0.51-5.06,1.53-7.12c1.02-2.06,2.44-3.66,4.26-4.81c1.82-1.15,3.96-1.72,6.43-1.72c3.85,0,6.88,1.29,9.07,3.87
	c2.19,2.58,3.28,6.18,3.28,10.82v41.46h17.67v-46.14c0-7.67-2.05-13.87-6.14-18.62C600.59,90.39,594.53,88.02,586.52,88.02z
	 M674.17,92.96c-5.15-3.47-11.41-5.2-18.78-5.2c-6.93,0-13.06,1.57-18.39,4.71c-5.33,3.14-9.51,7.55-12.54,13.22
	c-3.03,5.68-4.55,12.35-4.55,20.01c0,7.02,1.55,13.25,4.65,18.68c3.1,5.44,7.39,9.7,12.86,12.8c5.48,3.1,11.82,4.65,19.01,4.65
	c6.76,0,12.98-1.78,18.68-5.33c5.7-3.55,9.87-8.53,12.51-14.95l-17.67-5.07c-1.3,2.86-3.18,5.05-5.65,6.56
	c-2.47,1.52-5.44,2.27-8.9,2.27c-5.5,0-9.67-1.79-12.51-5.36c-2.08-2.61-3.39-6.03-3.94-10.23h31.78h8.97h8.51
	c0.74-8.49-0.13-15.88-2.6-22.16C683.14,101.3,679.33,96.42,674.17,92.96z M656.17,103.09c5.15,0,8.87,1.57,11.14,4.71
	c1.5,2.06,2.49,5.01,3,8.81h-30.9c0.69-3.24,1.84-5.93,3.46-8.03C645.72,104.92,650.15,103.09,656.17,103.09z M722.06,70.21h-17.67
	v19.49h-11.96v13.65h11.96v26.77c0,4.2,0.04,7.96,0.13,11.27c0.09,3.31,1,6.57,2.73,9.78c1.91,3.42,4.69,5.9,8.35,7.44
	c3.66,1.54,7.82,2.36,12.48,2.47c4.66,0.11,9.41-0.29,14.26-1.2V145.2c-4.16,0.56-7.95,0.74-11.37,0.52
	c-3.42-0.22-5.91-1.56-7.47-4.03c-0.82-1.3-1.27-3.04-1.33-5.23c-0.07-2.19-0.1-4.65-0.1-7.38v-25.73h20.27V89.71h-20.27V70.21z
	 M790.16,89.54c-2.12,0.15-4.18,0.52-6.17,1.1c-1.99,0.58-3.83,1.4-5.52,2.44c-2.21,1.3-4.07,2.95-5.59,4.94
	c-0.72,0.95-1.37,1.94-1.95,2.99V89.71h-15.6v70.18h17.81v-35.87c0-2.69,0.37-5.1,1.1-7.25c0.74-2.14,1.82-4.01,3.25-5.59
	c1.43-1.58,3.18-2.85,5.26-3.8c2.08-1,4.41-1.59,6.99-1.79c2.58-0.19,4.84,0.01,6.79,0.62v-16.5
	C794.4,89.45,792.28,89.39,790.16,89.54z M859.42,89.71l-18.33,47.75l-18.45-47.75h-18.32l28.31,69.62l-11.54,31.75h16.37
	L877.1,89.71H859.42z M122.12,15.58L22.9,72.86v114.57l99.22,57.28l99.22-57.28V72.86L122.12,15.58z M38.39,81.8l83.73-48.34
	l75.98,43.87l-25.52,14.74l-50.47-29.12L58.33,99.75v2.51v6.19v49.58l-19.95,11.51V81.8z M122.11,179.13l-5.27-2.85l-1.52-0.73
	l-41.5-23.96V111.2l31.43,18.16l16.87,9.83l42.73-24.77v40.4l-34.99,20.19v-0.11L122.11,179.13z M87.13,101.01l34.98-20.19
	l34.98,20.19l-34.99,20.2L87.13,101.01z M205.85,178.49l-83.73,48.34l-75.99-43.88l25.53-14.73l50.46,29.13l58.22-33.59v-58.29
	l25.52-14.73V178.49z"/>
</svg>
